<svg width="56" height="34" viewBox="0 0 56 34" fill="none" xmlns="http://www.w3.org/2000/svg">
<rect width="56" height="34" rx="5" fill="#002C5F"/>
<g clip-path="url(#clip0_2961_5805)">
<path d="M5.5 5.77719C5.5 5.13654 6.01935 4.61719 6.66 4.61719H7.25001V6.08778H5.5V5.77719Z" fill="#F9E477"/>
<path d="M10.75 4.61719H11.34C11.9807 4.61719 12.5 5.13654 12.5 5.77719V6.08778H10.75V4.61719Z" fill="#F9E477"/>
<rect x="7.54297" y="4.61719" width="2.91668" height="5.14706" fill="#F9E477"/>
<rect x="5.5" y="6.45312" width="1.75001" height="1.47059" fill="#F9E477"/>
<rect x="10.75" y="6.45312" width="1.75001" height="1.47059" fill="#F9E477"/>
<path d="M5.5 8.29297H7.25001V9.76356H6.66C6.01935 9.76356 5.5 9.24421 5.5 8.60356V8.29297Z" fill="#F9E477"/>
<path d="M10.75 8.29297H12.5V8.60356C12.5 9.24421 11.9807 9.76356 11.34 9.76356H10.75V8.29297Z" fill="#F9E477"/>
</g>
<g clip-path="url(#clip1_2961_5805)">
<path d="M41.644 29.6075C41.4067 29.6075 41.188 29.5636 40.988 29.4757C40.788 29.3906 40.6133 29.2698 40.464 29.1134C40.3173 28.9569 40.2027 28.7743 40.12 28.5657C40.04 28.3543 40 28.1237 40 27.8739C40 27.6269 40.04 27.3977 40.12 27.1863C40.2027 26.9749 40.3173 26.7924 40.464 26.6386C40.6133 26.4822 40.788 26.3614 40.988 26.2763C41.188 26.1885 41.4067 26.1445 41.644 26.1445C41.98 26.1445 42.2707 26.2186 42.516 26.3669C42.7613 26.5151 42.9547 26.7128 43.096 26.9598L42.636 27.3139C42.532 27.1355 42.4027 26.9955 42.248 26.8939C42.0933 26.7896 41.8987 26.7375 41.664 26.7375C41.4533 26.7375 41.2707 26.7883 41.116 26.8898C40.964 26.9886 40.8467 27.1245 40.764 27.2975C40.6813 27.4677 40.64 27.6598 40.64 27.8739C40.64 28.0881 40.6813 28.2816 40.764 28.4545C40.8467 28.6275 40.964 28.7647 41.116 28.8663C41.2707 28.9651 41.4533 29.0145 41.664 29.0145C41.8987 29.0145 42.0933 28.9624 42.248 28.8581C42.4027 28.7537 42.532 28.6137 42.636 28.4381L43.096 28.7922C42.9547 29.0392 42.7613 29.2369 42.516 29.3851C42.2707 29.5334 41.98 29.6075 41.644 29.6075Z" fill="white"/>
<path d="M43.1445 29.5375L44.4005 26.2104H45.1285L46.3885 29.5375H45.7445L45.4885 28.8375H44.0445L43.7885 29.5375H43.1445ZM44.2525 28.2816H45.2765L44.7645 26.8939L44.2525 28.2816Z" fill="white"/>
<path d="M46.7349 29.5375V26.2104H48.1669C48.3749 26.2104 48.5589 26.2502 48.7189 26.3298C48.8815 26.4094 49.0082 26.5247 49.0989 26.6757C49.1922 26.8239 49.2389 27.001 49.2389 27.2069C49.2389 27.4512 49.1735 27.6557 49.0429 27.8204C48.9149 27.9824 48.7442 28.0922 48.5309 28.1498L49.5749 29.521V29.5375H48.8349L47.8669 28.1951H47.3509V29.5375H46.7349ZM47.3509 27.6434H48.1029C48.2682 27.6434 48.3922 27.6049 48.4749 27.5281C48.5575 27.4485 48.5989 27.3414 48.5989 27.2069C48.5989 27.0696 48.5575 26.9626 48.4749 26.8857C48.3922 26.8088 48.2682 26.7704 48.1029 26.7704H47.3509V27.6434Z" fill="white"/>
<path d="M49.9107 29.5375V26.2104H51.2147C51.5267 26.2104 51.8027 26.2749 52.0427 26.4039C52.2853 26.5302 52.476 26.7169 52.6147 26.9639C52.7533 27.211 52.8227 27.5143 52.8227 27.8739C52.8227 28.2336 52.7533 28.5369 52.6147 28.7839C52.476 29.031 52.2853 29.219 52.0427 29.3481C51.8027 29.4743 51.5267 29.5375 51.2147 29.5375H49.9107ZM50.5267 28.9857H51.1827C51.492 28.9857 51.736 28.891 51.9147 28.7016C52.096 28.5122 52.1867 28.2363 52.1867 27.8739C52.1867 27.5143 52.096 27.2398 51.9147 27.0504C51.736 26.861 51.492 26.7663 51.1827 26.7663H50.5267V28.9857Z" fill="white"/>
</g>
<g opacity="0.6">
<path d="M26.4023 24.3125H28.2625" stroke="white" stroke-width="1.4" stroke-linecap="round" stroke-linejoin="round"/>
<path d="M26.4023 23.6758V24.9481" stroke="white" stroke-width="1.4" stroke-linecap="round" stroke-linejoin="round"/>
<path d="M25.1602 22.4023C25.8457 22.4023 26.4003 22.9714 26.4003 23.6747" stroke="white" stroke-width="1.4" stroke-linecap="round" stroke-linejoin="round"/>
<path d="M25.1602 26.2216C25.8457 26.2216 26.4003 25.6525 26.4003 24.9492" stroke="white" stroke-width="1.4" stroke-linecap="round" stroke-linejoin="round"/>
<path d="M22.6797 22.4023V26.2194" stroke="white" stroke-width="1.4" stroke-linecap="round" stroke-linejoin="round"/>
<path d="M25.16 26.2188H22.6797" stroke="white" stroke-width="1.4" stroke-linecap="round" stroke-linejoin="round"/>
<path d="M25.16 22.4023H22.6797" stroke="white" stroke-width="1.4" stroke-linecap="round" stroke-linejoin="round"/>
<path d="M20.1992 23.0391H22.6795" stroke="white" stroke-width="1.4" stroke-linecap="round" stroke-linejoin="round"/>
<path d="M20.1992 25.5859H22.6795" stroke="white" stroke-width="1.4" stroke-linecap="round" stroke-linejoin="round"/>
<path d="M28.2617 24.3111C32.3714 24.3111 35.7025 20.8934 35.7025 16.677C35.7025 15.5418 35.4607 14.4645 35.028 13.4961" stroke="white" stroke-width="1.4" stroke-linecap="round" stroke-linejoin="round"/>
<path d="M30.1219 9.04297H28.2617" stroke="white" stroke-width="1.4" stroke-linecap="round" stroke-linejoin="round"/>
<path d="M30.1191 9.6786V8.40625" stroke="white" stroke-width="1.4" stroke-linecap="round" stroke-linejoin="round"/>
<path d="M31.3593 10.952C30.6738 10.952 30.1191 10.383 30.1191 9.67969" stroke="white" stroke-width="1.4" stroke-linecap="round" stroke-linejoin="round"/>
<path d="M31.3632 7.13672C30.6777 7.13672 30.123 7.70574 30.123 8.40907" stroke="white" stroke-width="1.4" stroke-linecap="round" stroke-linejoin="round"/>
<path d="M33.8398 10.9538V7.13672" stroke="white" stroke-width="1.4" stroke-linecap="round" stroke-linejoin="round"/>
<path d="M31.3613 7.13672H33.8416" stroke="white" stroke-width="1.4" stroke-linecap="round" stroke-linejoin="round"/>
<path d="M31.3613 10.9531H33.8416" stroke="white" stroke-width="1.4" stroke-linecap="round" stroke-linejoin="round"/>
<path d="M36.3201 10.3164H33.8398" stroke="white" stroke-width="1.4" stroke-linecap="round" stroke-linejoin="round"/>
<path d="M36.3201 7.76953H33.8398" stroke="white" stroke-width="1.4" stroke-linecap="round" stroke-linejoin="round"/>
<path d="M28.2592 9.04297C24.1495 9.04297 20.8184 12.4606 20.8184 16.6771C20.8184 17.8123 21.0602 18.8896 21.4929 19.858" stroke="white" stroke-width="1.4" stroke-linecap="round" stroke-linejoin="round"/>
<path d="M27.7636 21.3481C27.648 21.5164 27.3843 21.4238 27.3992 21.2202L27.6381 17.9745H25.38C25.219 17.9745 25.124 17.794 25.2152 17.6613L28.6851 12.6094C28.8007 12.4412 29.0644 12.5338 29.0494 12.7373L28.8106 15.983H31.0687C31.2297 15.983 31.3247 16.1635 31.2335 16.2962L27.7636 21.3481Z" fill="white"/>
</g>
<defs>
<clipPath id="clip0_2961_5805">
<rect width="8" height="6" fill="white" transform="translate(5 4)"/>
</clipPath>
<clipPath id="clip1_2961_5805">
<rect width="13" height="4" fill="white" transform="translate(40 26)"/>
</clipPath>
</defs>
</svg>
