<svg width="54" height="40" viewBox="0 0 54 40" fill="none" xmlns="http://www.w3.org/2000/svg">
<rect y="6" width="54" height="34" rx="5" fill="#002C5F"/>
<rect x="6.5" width="42" height="38" rx="5" fill="white"/>
<g opacity="0.8">
<path d="M20.9001 8.30502L20.4902 7.48513C20.1796 7.6404 19.9835 7.95781 19.9835 8.30502H20.9001ZM27.5001 22.605L27.0107 23.3801C27.3097 23.5689 27.6906 23.5689 27.9896 23.3801L27.5001 22.605ZM34.1001 8.30502H35.0168C35.0168 7.95781 34.8206 7.6404 34.5101 7.48513L34.1001 8.30502ZM26.0243 5.74292L25.6144 4.92303L26.0243 5.74292ZM28.976 5.74292L29.3859 4.92303L28.976 5.74292ZM29.9751 13.8968C30.4814 13.8968 30.8918 13.4864 30.8918 12.9801C30.8918 12.4739 30.4814 12.0635 29.9751 12.0635V13.8968ZM25.0251 12.0635C24.5189 12.0635 24.1085 12.4739 24.1085 12.9801C24.1085 13.4864 24.5189 13.8968 25.0251 13.8968V12.0635ZM26.5835 15.455C26.5835 15.9613 26.9939 16.3717 27.5001 16.3717C28.0064 16.3717 28.4168 15.9613 28.4168 15.455H26.5835ZM28.4168 10.505C28.4168 9.99876 28.0064 9.58835 27.5001 9.58835C26.9939 9.58835 26.5835 9.99876 26.5835 10.505H28.4168ZM25.6144 4.92303L20.4902 7.48513L21.3101 9.12491L26.4343 6.56281L25.6144 4.92303ZM19.9835 8.30502V15.664H21.8168V8.30502H19.9835ZM19.9835 15.664C19.9835 17.0202 20.7746 18.3055 21.9487 19.5133C23.1415 20.7404 24.8619 22.023 27.0107 23.3801L27.9896 21.83C25.8873 20.5023 24.3077 19.3099 23.2633 18.2354C22.2001 17.1417 21.8168 16.2988 21.8168 15.664H19.9835ZM27.9896 23.3801C30.1025 22.0457 31.834 20.8979 33.0316 19.7395C34.2543 18.5568 35.0168 17.2703 35.0168 15.664H33.1835C33.1835 16.5987 32.7716 17.4404 31.757 18.4218C30.7174 19.4274 29.149 20.4796 27.0107 21.83L27.9896 23.3801ZM35.0168 15.664C35.0168 15.6591 35.0168 15.6541 35.0168 15.6491C35.0168 15.6441 35.0168 15.6391 35.0168 15.6341C35.0168 15.6291 35.0168 15.6241 35.0168 15.6191C35.0168 15.6141 35.0168 15.6091 35.0168 15.6041C35.0168 15.599 35.0168 15.594 35.0168 15.5889C35.0168 15.5839 35.0168 15.5788 35.0168 15.5738C35.0168 15.5687 35.0168 15.5636 35.0168 15.5585C35.0168 15.5535 35.0168 15.5484 35.0168 15.5433C35.0168 15.5382 35.0168 15.5331 35.0168 15.528C35.0168 15.5228 35.0168 15.5177 35.0168 15.5126C35.0168 15.5075 35.0168 15.5023 35.0168 15.4972C35.0168 15.492 35.0168 15.4869 35.0168 15.4817C35.0168 15.4765 35.0168 15.4714 35.0168 15.4662C35.0168 15.461 35.0168 15.4558 35.0168 15.4506C35.0168 15.4454 35.0168 15.4402 35.0168 15.435C35.0168 15.4298 35.0168 15.4246 35.0168 15.4193C35.0168 15.4141 35.0168 15.4089 35.0168 15.4036C35.0168 15.3984 35.0168 15.3931 35.0168 15.3879C35.0168 15.3826 35.0168 15.3774 35.0168 15.3721C35.0168 15.3668 35.0168 15.3615 35.0168 15.3562C35.0168 15.351 35.0168 15.3457 35.0168 15.3404C35.0168 15.3351 35.0168 15.3297 35.0168 15.3244C35.0168 15.3191 35.0168 15.3138 35.0168 15.3084C35.0168 15.3031 35.0168 15.2978 35.0168 15.2924C35.0168 15.2871 35.0168 15.2817 35.0168 15.2763C35.0168 15.271 35.0168 15.2656 35.0168 15.2602C35.0168 15.2549 35.0168 15.2495 35.0168 15.2441C35.0168 15.2387 35.0168 15.2333 35.0168 15.2279C35.0168 15.2225 35.0168 15.217 35.0168 15.2116C35.0168 15.2062 35.0168 15.2008 35.0168 15.1953C35.0168 15.1899 35.0168 15.1845 35.0168 15.179C35.0168 15.1736 35.0168 15.1681 35.0168 15.1626C35.0168 15.1572 35.0168 15.1517 35.0168 15.1462C35.0168 15.1407 35.0168 15.1353 35.0168 15.1298C35.0168 15.1243 35.0168 15.1188 35.0168 15.1133C35.0168 15.1078 35.0168 15.1022 35.0168 15.0967C35.0168 15.0912 35.0168 15.0857 35.0168 15.0801C35.0168 15.0746 35.0168 15.0691 35.0168 15.0635C35.0168 15.058 35.0168 15.0524 35.0168 15.0469C35.0168 15.0413 35.0168 15.0357 35.0168 15.0302C35.0168 15.0246 35.0168 15.019 35.0168 15.0134C35.0168 15.0078 35.0168 15.0022 35.0168 14.9966C35.0168 14.991 35.0168 14.9854 35.0168 14.9798C35.0168 14.9742 35.0168 14.9686 35.0168 14.963C35.0168 14.9573 35.0168 14.9517 35.0168 14.9461C35.0168 14.9404 35.0168 14.9348 35.0168 14.9291C35.0168 14.9235 35.0168 14.9178 35.0168 14.9122C35.0168 14.9065 35.0168 14.9008 35.0168 14.8952C35.0168 14.8895 35.0168 14.8838 35.0168 14.8781C35.0168 14.8724 35.0168 14.8667 35.0168 14.861C35.0168 14.8554 35.0168 14.8496 35.0168 14.8439C35.0168 14.8382 35.0168 14.8325 35.0168 14.8268C35.0168 14.8211 35.0168 14.8153 35.0168 14.8096C35.0168 14.8039 35.0168 14.7981 35.0168 14.7924C35.0168 14.7866 35.0168 14.7809 35.0168 14.7751C35.0168 14.7694 35.0168 14.7636 35.0168 14.7578C35.0168 14.7521 35.0168 14.7463 35.0168 14.7405C35.0168 14.7347 35.0168 14.7289 35.0168 14.7231C35.0168 14.7173 35.0168 14.7115 35.0168 14.7057C35.0168 14.6999 35.0168 14.6941 35.0168 14.6883C35.0168 14.6825 35.0168 14.6767 35.0168 14.6708C35.0168 14.665 35.0168 14.6592 35.0168 14.6534C35.0168 14.6475 35.0168 14.6417 35.0168 14.6358C35.0168 14.63 35.0168 14.6241 35.0168 14.6183C35.0168 14.6124 35.0168 14.6065 35.0168 14.6007C35.0168 14.5948 35.0168 14.5889 35.0168 14.5831C35.0168 14.5772 35.0168 14.5713 35.0168 14.5654C35.0168 14.5595 35.0168 14.5536 35.0168 14.5477C35.0168 14.5418 35.0168 14.5359 35.0168 14.53C35.0168 14.5241 35.0168 14.5182 35.0168 14.5123C35.0168 14.5063 35.0168 14.5004 35.0168 14.4945C35.0168 14.4886 35.0168 14.4826 35.0168 14.4767C35.0168 14.4707 35.0168 14.4648 35.0168 14.4588C35.0168 14.4529 35.0168 14.4469 35.0168 14.441C35.0168 14.435 35.0168 14.4291 35.0168 14.4231C35.0168 14.4171 35.0168 14.4112 35.0168 14.4052C35.0168 14.3992 35.0168 14.3932 35.0168 14.3872C35.0168 14.3812 35.0168 14.3752 35.0168 14.3693C35.0168 14.3633 35.0168 14.3573 35.0168 14.3512C35.0168 14.3452 35.0168 14.3392 35.0168 14.3332C35.0168 14.3272 35.0168 14.3212 35.0168 14.3152C35.0168 14.3091 35.0168 14.3031 35.0168 14.2971C35.0168 14.291 35.0168 14.285 35.0168 14.279C35.0168 14.2729 35.0168 14.2669 35.0168 14.2608C35.0168 14.2548 35.0168 14.2487 35.0168 14.2427C35.0168 14.2366 35.0168 14.2306 35.0168 14.2245C35.0168 14.2184 35.0168 14.2124 35.0168 14.2063C35.0168 14.2002 35.0168 14.1941 35.0168 14.188C35.0168 14.182 35.0168 14.1759 35.0168 14.1698C35.0168 14.1637 35.0168 14.1576 35.0168 14.1515C35.0168 14.1454 35.0168 14.1393 35.0168 14.1332C35.0168 14.1271 35.0168 14.121 35.0168 14.1149C35.0168 14.1088 35.0168 14.1026 35.0168 14.0965C35.0168 14.0904 35.0168 14.0843 35.0168 14.0781C35.0168 14.072 35.0168 14.0659 35.0168 14.0597C35.0168 14.0536 35.0168 14.0475 35.0168 14.0413C35.0168 14.0352 35.0168 14.029 35.0168 14.0229C35.0168 14.0167 35.0168 14.0106 35.0168 14.0044C35.0168 13.9983 35.0168 13.9921 35.0168 13.9859C35.0168 13.9798 35.0168 13.9736 35.0168 13.9674C35.0168 13.9613 35.0168 13.9551 35.0168 13.9489C35.0168 13.9427 35.0168 13.9365 35.0168 13.9304C35.0168 13.9242 35.0168 13.918 35.0168 13.9118C35.0168 13.9056 35.0168 13.8994 35.0168 13.8932C35.0168 13.887 35.0168 13.8808 35.0168 13.8746C35.0168 13.8684 35.0168 13.8622 35.0168 13.856C35.0168 13.8498 35.0168 13.8436 35.0168 13.8374C35.0168 13.8311 35.0168 13.8249 35.0168 13.8187C35.0168 13.8125 35.0168 13.8062 35.0168 13.8C35.0168 13.7938 35.0168 13.7876 35.0168 13.7813C35.0168 13.7751 35.0168 13.7689 35.0168 13.7626C35.0168 13.7564 35.0168 13.7501 35.0168 13.7439C35.0168 13.7376 35.0168 13.7314 35.0168 13.7251C35.0168 13.7189 35.0168 13.7126 35.0168 13.7064C35.0168 13.7001 35.0168 13.6939 35.0168 13.6876C35.0168 13.6813 35.0168 13.6751 35.0168 13.6688C35.0168 13.6625 35.0168 13.6563 35.0168 13.65C35.0168 13.6437 35.0168 13.6375 35.0168 13.6312C35.0168 13.6249 35.0168 13.6186 35.0168 13.6123C35.0168 13.6061 35.0168 13.5998 35.0168 13.5935C35.0168 13.5872 35.0168 13.5809 35.0168 13.5746C35.0168 13.5683 35.0168 13.562 35.0168 13.5557C35.0168 13.5494 35.0168 13.5431 35.0168 13.5368C35.0168 13.5305 35.0168 13.5242 35.0168 13.5179C35.0168 13.5116 35.0168 13.5053 35.0168 13.499C35.0168 13.4927 35.0168 13.4864 35.0168 13.4801C35.0168 13.4738 35.0168 13.4675 35.0168 13.4611C35.0168 13.4548 35.0168 13.4485 35.0168 13.4422C35.0168 13.4359 35.0168 13.4296 35.0168 13.4232C35.0168 13.4169 35.0168 13.4106 35.0168 13.4042C35.0168 13.3979 35.0168 13.3916 35.0168 13.3853C35.0168 13.3789 35.0168 13.3726 35.0168 13.3663C35.0168 13.3599 35.0168 13.3536 35.0168 13.3472C35.0168 13.3409 35.0168 13.3346 35.0168 13.3282C35.0168 13.3219 35.0168 13.3155 35.0168 13.3092C35.0168 13.3029 35.0168 13.2965 35.0168 13.2902C35.0168 13.2838 35.0168 13.2775 35.0168 13.2711C35.0168 13.2648 35.0168 13.2584 35.0168 13.2521C35.0168 13.2457 35.0168 13.2393 35.0168 13.233C35.0168 13.2266 35.0168 13.2203 35.0168 13.2139C35.0168 13.2076 35.0168 13.2012 35.0168 13.1948C35.0168 13.1885 35.0168 13.1821 35.0168 13.1758C35.0168 13.1694 35.0168 13.163 35.0168 13.1567C35.0168 13.1503 35.0168 13.1439 35.0168 13.1376C35.0168 13.1312 35.0168 13.1248 35.0168 13.1184C35.0168 13.1121 35.0168 13.1057 35.0168 13.0993C35.0168 13.093 35.0168 13.0866 35.0168 13.0802C35.0168 13.0738 35.0168 13.0675 35.0168 13.0611C35.0168 13.0547 35.0168 13.0483 35.0168 13.042C35.0168 13.0356 35.0168 13.0292 35.0168 13.0228C35.0168 13.0164 35.0168 13.0101 35.0168 13.0037C35.0168 12.9973 35.0168 12.9909 35.0168 12.9845C35.0168 12.9782 35.0168 12.9718 35.0168 12.9654C35.0168 12.959 35.0168 12.9526 35.0168 12.9462C35.0168 12.9398 35.0168 12.9335 35.0168 12.9271C35.0168 12.9207 35.0168 12.9143 35.0168 12.9079C35.0168 12.9015 35.0168 12.8951 35.0168 12.8888C35.0168 12.8824 35.0168 12.876 35.0168 12.8696C35.0168 12.8632 35.0168 12.8568 35.0168 12.8504C35.0168 12.844 35.0168 12.8377 35.0168 12.8313C35.0168 12.8249 35.0168 12.8185 35.0168 12.8121C35.0168 12.8057 35.0168 12.7993 35.0168 12.7929C35.0168 12.7865 35.0168 12.7801 35.0168 12.7738C35.0168 12.7674 35.0168 12.761 35.0168 12.7546C35.0168 12.7482 35.0168 12.7418 35.0168 12.7354C35.0168 12.729 35.0168 12.7226 35.0168 12.7162C35.0168 12.7099 35.0168 12.7035 35.0168 12.6971C35.0168 12.6907 35.0168 12.6843 35.0168 12.6779C35.0168 12.6715 35.0168 12.6651 35.0168 12.6587C35.0168 12.6524 35.0168 12.646 35.0168 12.6396C35.0168 12.6332 35.0168 12.6268 35.0168 12.6204C35.0168 12.614 35.0168 12.6076 35.0168 12.6012C35.0168 12.5949 35.0168 12.5885 35.0168 12.5821C35.0168 12.5757 35.0168 12.5693 35.0168 12.5629C35.0168 12.5565 35.0168 12.5502 35.0168 12.5438C35.0168 12.5374 35.0168 12.531 35.0168 12.5246C35.0168 12.5182 35.0168 12.5119 35.0168 12.5055C35.0168 12.4991 35.0168 12.4927 35.0168 12.4863C35.0168 12.48 35.0168 12.4736 35.0168 12.4672C35.0168 12.4608 35.0168 12.4544 35.0168 12.4481C35.0168 12.4417 35.0168 12.4353 35.0168 12.4289C35.0168 12.4226 35.0168 12.4162 35.0168 12.4098C35.0168 12.4034 35.0168 12.3971 35.0168 12.3907C35.0168 12.3843 35.0168 12.378 35.0168 12.3716C35.0168 12.3652 35.0168 12.3588 35.0168 12.3525C35.0168 12.3461 35.0168 12.3397 35.0168 12.3334C35.0168 12.327 35.0168 12.3206 35.0168 12.3143C35.0168 12.3079 35.0168 12.3016 35.0168 12.2952C35.0168 12.2888 35.0168 12.2825 35.0168 12.2761C35.0168 12.2698 35.0168 12.2634 35.0168 12.2571C35.0168 12.2507 35.0168 12.2443 35.0168 12.238C35.0168 12.2316 35.0168 12.2253 35.0168 12.2189C35.0168 12.2126 35.0168 12.2062 35.0168 12.1999C35.0168 12.1935 35.0168 12.1872 35.0168 12.1809C35.0168 12.1745 35.0168 12.1682 35.0168 12.1618C35.0168 12.1555 35.0168 12.1492 35.0168 12.1428C35.0168 12.1365 35.0168 12.1301 35.0168 12.1238C35.0168 12.1175 35.0168 12.1111 35.0168 12.1048C35.0168 12.0985 35.0168 12.0922 35.0168 12.0858C35.0168 12.0795 35.0168 12.0732 35.0168 12.0669C35.0168 12.0605 35.0168 12.0542 35.0168 12.0479C35.0168 12.0416 35.0168 12.0353 35.0168 12.0289C35.0168 12.0226 35.0168 12.0163 35.0168 12.01C35.0168 12.0037 35.0168 11.9974 35.0168 11.9911C35.0168 11.9848 35.0168 11.9785 35.0168 11.9722C35.0168 11.9659 35.0168 11.9596 35.0168 11.9533C35.0168 11.947 35.0168 11.9407 35.0168 11.9344C35.0168 11.9281 35.0168 11.9218 35.0168 11.9155C35.0168 11.9092 35.0168 11.9029 35.0168 11.8966C35.0168 11.8903 35.0168 11.8841 35.0168 11.8778C35.0168 11.8715 35.0168 11.8652 35.0168 11.859C35.0168 11.8527 35.0168 11.8464 35.0168 11.8401C35.0168 11.8339 35.0168 11.8276 35.0168 11.8213C35.0168 11.8151 35.0168 11.8088 35.0168 11.8025C35.0168 11.7963 35.0168 11.79 35.0168 11.7838C35.0168 11.7775 35.0168 11.7713 35.0168 11.765C35.0168 11.7588 35.0168 11.7525 35.0168 11.7463C35.0168 11.74 35.0168 11.7338 35.0168 11.7276C35.0168 11.7213 35.0168 11.7151 35.0168 11.7089C35.0168 11.7026 35.0168 11.6964 35.0168 11.6902C35.0168 11.6839 35.0168 11.6777 35.0168 11.6715C35.0168 11.6653 35.0168 11.6591 35.0168 11.6528C35.0168 11.6466 35.0168 11.6404 35.0168 11.6342C35.0168 11.628 35.0168 11.6218 35.0168 11.6156C35.0168 11.6094 35.0168 11.6032 35.0168 11.597C35.0168 11.5908 35.0168 11.5846 35.0168 11.5784C35.0168 11.5722 35.0168 11.5661 35.0168 11.5599C35.0168 11.5537 35.0168 11.5475 35.0168 11.5413C35.0168 11.5352 35.0168 11.529 35.0168 11.5228C35.0168 11.5166 35.0168 11.5105 35.0168 11.5043C35.0168 11.4982 35.0168 11.492 35.0168 11.4858C35.0168 11.4797 35.0168 11.4735 35.0168 11.4674C35.0168 11.4612 35.0168 11.4551 35.0168 11.449C35.0168 11.4428 35.0168 11.4367 35.0168 11.4305C35.0168 11.4244 35.0168 11.4183 35.0168 11.4122C35.0168 11.406 35.0168 11.3999 35.0168 11.3938C35.0168 11.3877 35.0168 11.3816 35.0168 11.3754C35.0168 11.3693 35.0168 11.3632 35.0168 11.3571C35.0168 11.351 35.0168 11.3449 35.0168 11.3388C35.0168 11.3327 35.0168 11.3266 35.0168 11.3205C35.0168 11.3145 35.0168 11.3084 35.0168 11.3023C35.0168 11.2962 35.0168 11.2901 35.0168 11.2841C35.0168 11.278 35.0168 11.2719 35.0168 11.2659C35.0168 11.2598 35.0168 11.2538 35.0168 11.2477C35.0168 11.2416 35.0168 11.2356 35.0168 11.2295C35.0168 11.2235 35.0168 11.2175 35.0168 11.2114C35.0168 11.2054 35.0168 11.1993 35.0168 11.1933C35.0168 11.1873 35.0168 11.1813 35.0168 11.1752C35.0168 11.1692 35.0168 11.1632 35.0168 11.1572C35.0168 11.1512 35.0168 11.1452 35.0168 11.1392C35.0168 11.1332 35.0168 11.1272 35.0168 11.1212C35.0168 11.1152 35.0168 11.1092 35.0168 11.1032C35.0168 11.0972 35.0168 11.0913 35.0168 11.0853C35.0168 11.0793 35.0168 11.0733 35.0168 11.0674C35.0168 11.0614 35.0168 11.0555 35.0168 11.0495C35.0168 11.0435 35.0168 11.0376 35.0168 11.0316C35.0168 11.0257 35.0168 11.0198 35.0168 11.0138C35.0168 11.0079 35.0168 11.002 35.0168 10.996C35.0168 10.9901 35.0168 10.9842 35.0168 10.9783C35.0168 10.9723 35.0168 10.9664 35.0168 10.9605C35.0168 10.9546 35.0168 10.9487 35.0168 10.9428C35.0168 10.9369 35.0168 10.931 35.0168 10.9252C35.0168 10.9193 35.0168 10.9134 35.0168 10.9075C35.0168 10.9016 35.0168 10.8958 35.0168 10.8899C35.0168 10.884 35.0168 10.8782 35.0168 10.8723C35.0168 10.8665 35.0168 10.8606 35.0168 10.8548C35.0168 10.8489 35.0168 10.8431 35.0168 10.8373C35.0168 10.8314 35.0168 10.8256 35.0168 10.8198C35.0168 10.814 35.0168 10.8081 35.0168 10.8023C35.0168 10.7965 35.0168 10.7907 35.0168 10.7849C35.0168 10.7791 35.0168 10.7733 35.0168 10.7675C35.0168 10.7617 35.0168 10.756 35.0168 10.7502C35.0168 10.7444 35.0168 10.7386 35.0168 10.7329C35.0168 10.7271 35.0168 10.7213 35.0168 10.7156C35.0168 10.7098 35.0168 10.7041 35.0168 10.6983C35.0168 10.6926 35.0168 10.6869 35.0168 10.6811C35.0168 10.6754 35.0168 10.6697 35.0168 10.664C35.0168 10.6582 35.0168 10.6525 35.0168 10.6468C35.0168 10.6411 35.0168 10.6354 35.0168 10.6297C35.0168 10.624 35.0168 10.6183 35.0168 10.6127C35.0168 10.607 35.0168 10.6013 35.0168 10.5956C35.0168 10.59 35.0168 10.5843 35.0168 10.5786C35.0168 10.573 35.0168 10.5673 35.0168 10.5617C35.0168 10.556 35.0168 10.5504 35.0168 10.5448C35.0168 10.5391 35.0168 10.5335 35.0168 10.5279C35.0168 10.5223 35.0168 10.5166 35.0168 10.511C35.0168 10.5054 35.0168 10.4998 35.0168 10.4942C35.0168 10.4886 35.0168 10.4831 35.0168 10.4775C35.0168 10.4719 35.0168 10.4663 35.0168 10.4607C35.0168 10.4552 35.0168 10.4496 35.0168 10.4441C35.0168 10.4385 35.0168 10.433 35.0168 10.4274C35.0168 10.4219 35.0168 10.4163 35.0168 10.4108C35.0168 10.4053 35.0168 10.3998 35.0168 10.3942C35.0168 10.3887 35.0168 10.3832 35.0168 10.3777C35.0168 10.3722 35.0168 10.3667 35.0168 10.3612C35.0168 10.3557 35.0168 10.3503 35.0168 10.3448C35.0168 10.3393 35.0168 10.3339 35.0168 10.3284C35.0168 10.3229 35.0168 10.3175 35.0168 10.312C35.0168 10.3066 35.0168 10.3012 35.0168 10.2957C35.0168 10.2903 35.0168 10.2849 35.0168 10.2795C35.0168 10.274 35.0168 10.2686 35.0168 10.2632C35.0168 10.2578 35.0168 10.2524 35.0168 10.247C35.0168 10.2416 35.0168 10.2363 35.0168 10.2309C35.0168 10.2255 35.0168 10.2202 35.0168 10.2148C35.0168 10.2094 35.0168 10.2041 35.0168 10.1987C35.0168 10.1934 35.0168 10.1881 35.0168 10.1827C35.0168 10.1774 35.0168 10.1721 35.0168 10.1668C35.0168 10.1615 35.0168 10.1561 35.0168 10.1508C35.0168 10.1455 35.0168 10.1403 35.0168 10.135C35.0168 10.1297 35.0168 10.1244 35.0168 10.1191C35.0168 10.1139 35.0168 10.1086 35.0168 10.1034C35.0168 10.0981 35.0168 10.0929 35.0168 10.0876C35.0168 10.0824 35.0168 10.0772 35.0168 10.0719C35.0168 10.0667 35.0168 10.0615 35.0168 10.0563C35.0168 10.0511 35.0168 10.0459 35.0168 10.0407C35.0168 10.0355 35.0168 10.0303 35.0168 10.0252C35.0168 10.02 35.0168 10.0148 35.0168 10.0097C35.0168 10.0045 35.0168 9.99936 35.0168 9.99422C35.0168 9.98907 35.0168 9.98394 35.0168 9.97881C35.0168 9.97369 35.0168 9.96857 35.0168 9.96346C35.0168 9.95835 35.0168 9.95325 35.0168 9.94816C35.0168 9.94307 35.0168 9.93798 35.0168 9.93291C35.0168 9.92783 35.0168 9.92277 35.0168 9.91771C35.0168 9.91265 35.0168 9.9076 35.0168 9.90255C35.0168 9.89751 35.0168 9.89248 35.0168 9.88745C35.0168 9.88243 35.0168 9.87741 35.0168 9.8724C35.0168 9.86739 35.0168 9.8624 35.0168 9.8574C35.0168 9.85241 35.0168 9.84743 35.0168 9.84246C35.0168 9.83748 35.0168 9.83252 35.0168 9.82756C35.0168 9.8226 35.0168 9.81766 35.0168 9.81272C35.0168 9.80778 35.0168 9.80285 35.0168 9.79793C35.0168 9.79301 35.0168 9.78809 35.0168 9.78319C35.0168 9.77829 35.0168 9.77339 35.0168 9.7685C35.0168 9.76362 35.0168 9.75874 35.0168 9.75387C35.0168 9.749 35.0168 9.74415 35.0168 9.7393C35.0168 9.73445 35.0168 9.7296 35.0168 9.72477C35.0168 9.71994 35.0168 9.71512 35.0168 9.7103C35.0168 9.70549 35.0168 9.70069 35.0168 9.69589C35.0168 9.69109 35.0168 9.68631 35.0168 9.68153C35.0168 9.67675 35.0168 9.67199 35.0168 9.66723C35.0168 9.66247 35.0168 9.65772 35.0168 9.65298C35.0168 9.64824 35.0168 9.64351 35.0168 9.63879C35.0168 9.63407 35.0168 9.62935 35.0168 9.62465C35.0168 9.61995 35.0168 9.61526 35.0168 9.61057C35.0168 9.60589 35.0168 9.60122 35.0168 9.59655C35.0168 9.59189 35.0168 9.58723 35.0168 9.58259C35.0168 9.57794 35.0168 9.57331 35.0168 9.56868C35.0168 9.56405 35.0168 9.55944 35.0168 9.55483C35.0168 9.55022 35.0168 9.54563 35.0168 9.54104C35.0168 9.53645 35.0168 9.53188 35.0168 9.52731C35.0168 9.52274 35.0168 9.51818 35.0168 9.51364C35.0168 9.50909 35.0168 9.50455 35.0168 9.50002C35.0168 9.49549 35.0168 9.49097 35.0168 9.48647C35.0168 9.48196 35.0168 9.47746 35.0168 9.47297C35.0168 9.46848 35.0168 9.46401 35.0168 9.45954C35.0168 9.45507 35.0168 9.45061 35.0168 9.44616C35.0168 9.44172 35.0168 9.43728 35.0168 9.43285C35.0168 9.42842 35.0168 9.42401 35.0168 9.4196C35.0168 9.41519 35.0168 9.41079 35.0168 9.40641C35.0168 9.40202 35.0168 9.39764 35.0168 9.39328C35.0168 9.38891 35.0168 9.38456 35.0168 9.38021C35.0168 9.37587 35.0168 9.37153 35.0168 9.36721C35.0168 9.36288 35.0168 9.35857 35.0168 9.35427C35.0168 9.34996 35.0168 9.34567 35.0168 9.34139C35.0168 9.33711 35.0168 9.33283 35.0168 9.32857C35.0168 9.32431 35.0168 9.32006 35.0168 9.31582C35.0168 9.31158 35.0168 9.30735 35.0168 9.30313C35.0168 9.29891 35.0168 9.29471 35.0168 9.29051C35.0168 9.28631 35.0168 9.28213 35.0168 9.27795C35.0168 9.27377 35.0168 9.26961 35.0168 9.26546C35.0168 9.2613 35.0168 9.25716 35.0168 9.25303C35.0168 9.2489 35.0168 9.24477 35.0168 9.24066C35.0168 9.23655 35.0168 9.23246 35.0168 9.22837C35.0168 9.22428 35.0168 9.2202 35.0168 9.21614C35.0168 9.21207 35.0168 9.20802 35.0168 9.20397C35.0168 9.19993 35.0168 9.1959 35.0168 9.19187C35.0168 9.18785 35.0168 9.18384 35.0168 9.17984C35.0168 9.17584 35.0168 9.17186 35.0168 9.16788C35.0168 9.1639 35.0168 9.15994 35.0168 9.15598C35.0168 9.15203 35.0168 9.14809 35.0168 9.14416C35.0168 9.14023 35.0168 9.13631 35.0168 9.1324C35.0168 9.12849 35.0168 9.12459 35.0168 9.12071C35.0168 9.11682 35.0168 9.11295 35.0168 9.10909C35.0168 9.10523 35.0168 9.10137 35.0168 9.09754C35.0168 9.0937 35.0168 9.08987 35.0168 9.08605C35.0168 9.08224 35.0168 9.07843 35.0168 9.07464C35.0168 9.07085 35.0168 9.06707 35.0168 9.0633C35.0168 9.05953 35.0168 9.05577 35.0168 9.05203C35.0168 9.04828 35.0168 9.04455 35.0168 9.04083C35.0168 9.03711 35.0168 9.0334 35.0168 9.0297C35.0168 9.026 35.0168 9.02232 35.0168 9.01864C35.0168 9.01497 35.0168 9.01131 35.0168 9.00766C35.0168 9.00401 35.0168 9.00037 35.0168 8.99674C35.0168 8.99312 35.0168 8.9895 35.0168 8.9859C35.0168 8.9823 35.0168 8.97871 35.0168 8.97513C35.0168 8.97156 35.0168 8.96799 35.0168 8.96444C35.0168 8.96089 35.0168 8.95735 35.0168 8.95382C35.0168 8.95029 35.0168 8.94677 35.0168 8.94327C35.0168 8.93977 35.0168 8.93628 35.0168 8.9328C35.0168 8.92932 35.0168 8.92585 35.0168 8.9224C35.0168 8.91895 35.0168 8.9155 35.0168 8.91208C35.0168 8.90865 35.0168 8.90523 35.0168 8.90183C35.0168 8.89842 35.0168 8.89503 35.0168 8.89165C35.0168 8.88827 35.0168 8.88491 35.0168 8.88155C35.0168 8.8782 35.0168 8.87486 35.0168 8.87153C35.0168 8.8682 35.0168 8.86489 35.0168 8.86159C35.0168 8.85828 35.0168 8.85499 35.0168 8.85172C35.0168 8.84844 35.0168 8.84518 35.0168 8.84193C35.0168 8.83867 35.0168 8.83544 35.0168 8.83221C35.0168 8.82899 35.0168 8.82577 35.0168 8.82257C35.0168 8.81937 35.0168 8.81619 35.0168 8.81301C35.0168 8.80984 35.0168 8.80668 35.0168 8.80353C35.0168 8.80039 35.0168 8.79725 35.0168 8.79413C35.0168 8.79101 35.0168 8.7879 35.0168 8.78481C35.0168 8.78171 35.0168 8.77863 35.0168 8.77556C35.0168 8.7725 35.0168 8.76944 35.0168 8.7664C35.0168 8.76336 35.0168 8.76033 35.0168 8.75731C35.0168 8.7543 35.0168 8.7513 35.0168 8.74831C35.0168 8.74532 35.0168 8.74235 35.0168 8.73939C35.0168 8.73642 35.0168 8.73348 35.0168 8.73054C35.0168 8.72761 35.0168 8.72469 35.0168 8.72178C35.0168 8.71887 35.0168 8.71598 35.0168 8.7131C35.0168 8.71022 35.0168 8.70735 35.0168 8.7045C35.0168 8.70165 35.0168 8.69881 35.0168 8.69598C35.0168 8.69316 35.0168 8.69034 35.0168 8.68755C35.0168 8.68475 35.0168 8.68196 35.0168 8.67919C35.0168 8.67642 35.0168 8.67367 35.0168 8.67093C35.0168 8.66818 35.0168 8.66545 35.0168 8.66274C35.0168 8.66002 35.0168 8.65732 35.0168 8.65464C35.0168 8.65195 35.0168 8.64928 35.0168 8.64662C35.0168 8.64396 35.0168 8.64132 35.0168 8.63868C35.0168 8.63605 35.0168 8.63344 35.0168 8.63084C35.0168 8.62823 35.0168 8.62564 35.0168 8.62307C35.0168 8.6205 35.0168 8.61794 35.0168 8.61539C35.0168 8.61285 35.0168 8.61031 35.0168 8.6078C35.0168 8.60528 35.0168 8.60278 35.0168 8.60029C35.0168 8.5978 35.0168 8.59533 35.0168 8.59287C35.0168 8.59041 35.0168 8.58796 35.0168 8.58553C35.0168 8.5831 35.0168 8.58069 35.0168 8.57828C35.0168 8.57588 35.0168 8.5735 35.0168 8.57112C35.0168 8.56875 35.0168 8.56639 35.0168 8.56405C35.0168 8.56171 35.0168 8.55938 35.0168 8.55706C35.0168 8.55475 35.0168 8.55245 35.0168 8.55016C35.0168 8.54788 35.0168 8.54561 35.0168 8.54335C35.0168 8.5411 35.0168 8.53886 35.0168 8.53663C35.0168 8.53441 35.0168 8.5322 35.0168 8.53C35.0168 8.52781 35.0168 8.52562 35.0168 8.52346C35.0168 8.52129 35.0168 8.51914 35.0168 8.51701C35.0168 8.51487 35.0168 8.51275 35.0168 8.51064C35.0168 8.50854 35.0168 8.50645 35.0168 8.50437C35.0168 8.50229 35.0168 8.50023 35.0168 8.49819C35.0168 8.49614 35.0168 8.49411 35.0168 8.4921C35.0168 8.49008 35.0168 8.48808 35.0168 8.4861C35.0168 8.48411 35.0168 8.48214 35.0168 8.48019C35.0168 8.47823 35.0168 8.4763 35.0168 8.47437C35.0168 8.47245 35.0168 8.47054 35.0168 8.46865C35.0168 8.46676 35.0168 8.46488 35.0168 8.46302C35.0168 8.46115 35.0168 8.45931 35.0168 8.45748C35.0168 8.45565 35.0168 8.45383 35.0168 8.45203C35.0168 8.45023 35.0168 8.44845 35.0168 8.44668C35.0168 8.44491 35.0168 8.44316 35.0168 8.44142C35.0168 8.43968 35.0168 8.43796 35.0168 8.43626C35.0168 8.43455 35.0168 8.43286 35.0168 8.43119C35.0168 8.42951 35.0168 8.42785 35.0168 8.42621C35.0168 8.42457 35.0168 8.42294 35.0168 8.42133C35.0168 8.41972 35.0168 8.41812 35.0168 8.41655C35.0168 8.41497 35.0168 8.4134 35.0168 8.41186C35.0168 8.41031 35.0168 8.40878 35.0168 8.40726C35.0168 8.40575 35.0168 8.40425 35.0168 8.40277C35.0168 8.40128 35.0168 8.39982 35.0168 8.39837C35.0168 8.39692 35.0168 8.39548 35.0168 8.39406C35.0168 8.39264 35.0168 8.39124 35.0168 8.38986C35.0168 8.38847 35.0168 8.3871 35.0168 8.38575C35.0168 8.3844 35.0168 8.38306 35.0168 8.38174C35.0168 8.38042 35.0168 8.37911 35.0168 8.37783C35.0168 8.37654 35.0168 8.37527 35.0168 8.37401C35.0168 8.37276 35.0168 8.37152 35.0168 8.3703C35.0168 8.36907 35.0168 8.36787 35.0168 8.36668C35.0168 8.36549 35.0168 8.36432 35.0168 8.36316C35.0168 8.36201 35.0168 8.36087 35.0168 8.35975C35.0168 8.35863 35.0168 8.35752 35.0168 8.35643C35.0168 8.35534 35.0168 8.35427 35.0168 8.35322C35.0168 8.35216 35.0168 8.35112 35.0168 8.3501C35.0168 8.34908 35.0168 8.34807 35.0168 8.34709C35.0168 8.3461 35.0168 8.34513 35.0168 8.34417C35.0168 8.34322 35.0168 8.34228 35.0168 8.34136C35.0168 8.34044 35.0168 8.33954 35.0168 8.33865C35.0168 8.33777 35.0168 8.3369 35.0168 8.33605C35.0168 8.3352 35.0168 8.33436 35.0168 8.33354C35.0168 8.33273 35.0168 8.33193 35.0168 8.33114C35.0168 8.33036 35.0168 8.32959 35.0168 8.32885C35.0168 8.3281 35.0168 8.32737 35.0168 8.32665C35.0168 8.32594 35.0168 8.32524 35.0168 8.32456C35.0168 8.32388 35.0168 8.32322 35.0168 8.32258C35.0168 8.32193 35.0168 8.3213 35.0168 8.32069C35.0168 8.32009 35.0168 8.31949 35.0168 8.31892C35.0168 8.31834 35.0168 8.31779 35.0168 8.31725C35.0168 8.31671 35.0168 8.31619 35.0168 8.31568C35.0168 8.31518 35.0168 8.31469 35.0168 8.31422C35.0168 8.31375 35.0168 8.3133 35.0168 8.31287C35.0168 8.31243 35.0168 8.31202 35.0168 8.31162C35.0168 8.31122 35.0168 8.31084 35.0168 8.31048C35.0168 8.31012 35.0168 8.30977 35.0168 8.30945C35.0168 8.30912 35.0168 8.30881 35.0168 8.30852C35.0168 8.30823 35.0168 8.30796 35.0168 8.3077C35.0168 8.30745 35.0168 8.30721 35.0168 8.30699C35.0168 8.30677 35.0168 8.30657 35.0168 8.30639C35.0168 8.30621 35.0168 8.30604 35.0168 8.3059C35.0168 8.30575 35.0168 8.30562 35.0168 8.30551C35.0168 8.3054 35.0168 8.30531 35.0168 8.30524C35.0168 8.30517 35.0168 8.30511 35.0168 8.30507C35.0168 8.30504 35.0168 8.30502 34.1001 8.30502C33.1835 8.30502 33.1835 8.30504 33.1835 8.30507C33.1835 8.30511 33.1835 8.30517 33.1835 8.30524C33.1835 8.30531 33.1835 8.3054 33.1835 8.30551C33.1835 8.30562 33.1835 8.30575 33.1835 8.3059C33.1835 8.30604 33.1835 8.30621 33.1835 8.30639C33.1835 8.30657 33.1835 8.30677 33.1835 8.30699C33.1835 8.30721 33.1835 8.30745 33.1835 8.3077C33.1835 8.30796 33.1835 8.30823 33.1835 8.30852C33.1835 8.30881 33.1835 8.30912 33.1835 8.30945C33.1835 8.30977 33.1835 8.31012 33.1835 8.31048C33.1835 8.31084 33.1835 8.31122 33.1835 8.31162C33.1835 8.31202 33.1835 8.31243 33.1835 8.31287C33.1835 8.3133 33.1835 8.31375 33.1835 8.31422C33.1835 8.31469 33.1835 8.31518 33.1835 8.31568C33.1835 8.31619 33.1835 8.31671 33.1835 8.31725C33.1835 8.31779 33.1835 8.31834 33.1835 8.31892C33.1835 8.31949 33.1835 8.32009 33.1835 8.32069C33.1835 8.3213 33.1835 8.32193 33.1835 8.32258C33.1835 8.32322 33.1835 8.32388 33.1835 8.32456C33.1835 8.32524 33.1835 8.32594 33.1835 8.32665C33.1835 8.32737 33.1835 8.3281 33.1835 8.32885C33.1835 8.32959 33.1835 8.33036 33.1835 8.33114C33.1835 8.33193 33.1835 8.33273 33.1835 8.33354C33.1835 8.33436 33.1835 8.3352 33.1835 8.33605C33.1835 8.3369 33.1835 8.33777 33.1835 8.33865C33.1835 8.33954 33.1835 8.34044 33.1835 8.34136C33.1835 8.34228 33.1835 8.34322 33.1835 8.34417C33.1835 8.34513 33.1835 8.3461 33.1835 8.34709C33.1835 8.34807 33.1835 8.34908 33.1835 8.3501C33.1835 8.35112 33.1835 8.35216 33.1835 8.35322C33.1835 8.35427 33.1835 8.35534 33.1835 8.35643C33.1835 8.35752 33.1835 8.35863 33.1835 8.35975C33.1835 8.36087 33.1835 8.36201 33.1835 8.36316C33.1835 8.36432 33.1835 8.36549 33.1835 8.36668C33.1835 8.36787 33.1835 8.36907 33.1835 8.3703C33.1835 8.37152 33.1835 8.37276 33.1835 8.37401C33.1835 8.37527 33.1835 8.37654 33.1835 8.37783C33.1835 8.37911 33.1835 8.38042 33.1835 8.38174C33.1835 8.38306 33.1835 8.3844 33.1835 8.38575C33.1835 8.3871 33.1835 8.38847 33.1835 8.38986C33.1835 8.39124 33.1835 8.39264 33.1835 8.39406C33.1835 8.39548 33.1835 8.39692 33.1835 8.39837C33.1835 8.39982 33.1835 8.40128 33.1835 8.40277C33.1835 8.40425 33.1835 8.40575 33.1835 8.40726C33.1835 8.40878 33.1835 8.41031 33.1835 8.41186C33.1835 8.4134 33.1835 8.41497 33.1835 8.41655C33.1835 8.41812 33.1835 8.41972 33.1835 8.42133C33.1835 8.42294 33.1835 8.42457 33.1835 8.42621C33.1835 8.42785 33.1835 8.42951 33.1835 8.43119C33.1835 8.43286 33.1835 8.43455 33.1835 8.43626C33.1835 8.43796 33.1835 8.43968 33.1835 8.44142C33.1835 8.44316 33.1835 8.44491 33.1835 8.44668C33.1835 8.44845 33.1835 8.45023 33.1835 8.45203C33.1835 8.45383 33.1835 8.45565 33.1835 8.45748C33.1835 8.45931 33.1835 8.46115 33.1835 8.46302C33.1835 8.46488 33.1835 8.46676 33.1835 8.46865C33.1835 8.47054 33.1835 8.47245 33.1835 8.47437C33.1835 8.4763 33.1835 8.47823 33.1835 8.48019C33.1835 8.48214 33.1835 8.48411 33.1835 8.4861C33.1835 8.48808 33.1835 8.49008 33.1835 8.4921C33.1835 8.49411 33.1835 8.49614 33.1835 8.49819C33.1835 8.50023 33.1835 8.50229 33.1835 8.50437C33.1835 8.50645 33.1835 8.50854 33.1835 8.51064C33.1835 8.51275 33.1835 8.51487 33.1835 8.51701C33.1835 8.51914 33.1835 8.52129 33.1835 8.52346C33.1835 8.52562 33.1835 8.52781 33.1835 8.53C33.1835 8.5322 33.1835 8.53441 33.1835 8.53663C33.1835 8.53886 33.1835 8.5411 33.1835 8.54335C33.1835 8.54561 33.1835 8.54788 33.1835 8.55016C33.1835 8.55245 33.1835 8.55475 33.1835 8.55706C33.1835 8.55938 33.1835 8.56171 33.1835 8.56405C33.1835 8.56639 33.1835 8.56875 33.1835 8.57112C33.1835 8.5735 33.1835 8.57588 33.1835 8.57828C33.1835 8.58069 33.1835 8.5831 33.1835 8.58553C33.1835 8.58796 33.1835 8.59041 33.1835 8.59287C33.1835 8.59533 33.1835 8.5978 33.1835 8.60029C33.1835 8.60278 33.1835 8.60528 33.1835 8.6078C33.1835 8.61031 33.1835 8.61285 33.1835 8.61539C33.1835 8.61794 33.1835 8.6205 33.1835 8.62307C33.1835 8.62564 33.1835 8.62823 33.1835 8.63084C33.1835 8.63344 33.1835 8.63605 33.1835 8.63868C33.1835 8.64132 33.1835 8.64396 33.1835 8.64662C33.1835 8.64928 33.1835 8.65195 33.1835 8.65464C33.1835 8.65732 33.1835 8.66002 33.1835 8.66274C33.1835 8.66545 33.1835 8.66818 33.1835 8.67093C33.1835 8.67367 33.1835 8.67642 33.1835 8.67919C33.1835 8.68196 33.1835 8.68475 33.1835 8.68755C33.1835 8.69034 33.1835 8.69316 33.1835 8.69598C33.1835 8.69881 33.1835 8.70165 33.1835 8.7045C33.1835 8.70735 33.1835 8.71022 33.1835 8.7131C33.1835 8.71598 33.1835 8.71887 33.1835 8.72178C33.1835 8.72469 33.1835 8.72761 33.1835 8.73054C33.1835 8.73348 33.1835 8.73642 33.1835 8.73939C33.1835 8.74235 33.1835 8.74532 33.1835 8.74831C33.1835 8.7513 33.1835 8.7543 33.1835 8.75731C33.1835 8.76033 33.1835 8.76336 33.1835 8.7664C33.1835 8.76944 33.1835 8.7725 33.1835 8.77556C33.1835 8.77863 33.1835 8.78171 33.1835 8.78481C33.1835 8.7879 33.1835 8.79101 33.1835 8.79413C33.1835 8.79725 33.1835 8.80039 33.1835 8.80353C33.1835 8.80668 33.1835 8.80984 33.1835 8.81301C33.1835 8.81619 33.1835 8.81937 33.1835 8.82257C33.1835 8.82577 33.1835 8.82899 33.1835 8.83221C33.1835 8.83544 33.1835 8.83867 33.1835 8.84193C33.1835 8.84518 33.1835 8.84844 33.1835 8.85172C33.1835 8.85499 33.1835 8.85828 33.1835 8.86159C33.1835 8.86489 33.1835 8.8682 33.1835 8.87153C33.1835 8.87486 33.1835 8.8782 33.1835 8.88155C33.1835 8.88491 33.1835 8.88827 33.1835 8.89165C33.1835 8.89503 33.1835 8.89842 33.1835 8.90183C33.1835 8.90523 33.1835 8.90865 33.1835 8.91208C33.1835 8.9155 33.1835 8.91895 33.1835 8.9224C33.1835 8.92585 33.1835 8.92932 33.1835 8.9328C33.1835 8.93628 33.1835 8.93977 33.1835 8.94327C33.1835 8.94677 33.1835 8.95029 33.1835 8.95382C33.1835 8.95735 33.1835 8.96089 33.1835 8.96444C33.1835 8.96799 33.1835 8.97156 33.1835 8.97513C33.1835 8.97871 33.1835 8.9823 33.1835 8.9859C33.1835 8.9895 33.1835 8.99312 33.1835 8.99674C33.1835 9.00037 33.1835 9.00401 33.1835 9.00766C33.1835 9.01131 33.1835 9.01497 33.1835 9.01864C33.1835 9.02232 33.1835 9.026 33.1835 9.0297C33.1835 9.0334 33.1835 9.03711 33.1835 9.04083C33.1835 9.04455 33.1835 9.04828 33.1835 9.05203C33.1835 9.05577 33.1835 9.05953 33.1835 9.0633C33.1835 9.06707 33.1835 9.07085 33.1835 9.07464C33.1835 9.07843 33.1835 9.08224 33.1835 9.08605C33.1835 9.08987 33.1835 9.0937 33.1835 9.09754C33.1835 9.10137 33.1835 9.10523 33.1835 9.10909C33.1835 9.11295 33.1835 9.11682 33.1835 9.12071C33.1835 9.12459 33.1835 9.12849 33.1835 9.1324C33.1835 9.13631 33.1835 9.14023 33.1835 9.14416C33.1835 9.14809 33.1835 9.15203 33.1835 9.15598C33.1835 9.15994 33.1835 9.1639 33.1835 9.16788C33.1835 9.17186 33.1835 9.17584 33.1835 9.17984C33.1835 9.18384 33.1835 9.18785 33.1835 9.19187C33.1835 9.1959 33.1835 9.19993 33.1835 9.20397C33.1835 9.20802 33.1835 9.21207 33.1835 9.21614C33.1835 9.2202 33.1835 9.22428 33.1835 9.22837C33.1835 9.23246 33.1835 9.23655 33.1835 9.24066C33.1835 9.24477 33.1835 9.2489 33.1835 9.25303C33.1835 9.25716 33.1835 9.2613 33.1835 9.26546C33.1835 9.26961 33.1835 9.27377 33.1835 9.27795C33.1835 9.28213 33.1835 9.28631 33.1835 9.29051C33.1835 9.29471 33.1835 9.29891 33.1835 9.30313C33.1835 9.30735 33.1835 9.31158 33.1835 9.31582C33.1835 9.32006 33.1835 9.32431 33.1835 9.32857C33.1835 9.33283 33.1835 9.33711 33.1835 9.34139C33.1835 9.34567 33.1835 9.34996 33.1835 9.35427C33.1835 9.35857 33.1835 9.36288 33.1835 9.36721C33.1835 9.37153 33.1835 9.37587 33.1835 9.38021C33.1835 9.38456 33.1835 9.38891 33.1835 9.39328C33.1835 9.39764 33.1835 9.40202 33.1835 9.40641C33.1835 9.41079 33.1835 9.41519 33.1835 9.4196C33.1835 9.42401 33.1835 9.42842 33.1835 9.43285C33.1835 9.43728 33.1835 9.44172 33.1835 9.44616C33.1835 9.45061 33.1835 9.45507 33.1835 9.45954C33.1835 9.46401 33.1835 9.46848 33.1835 9.47297C33.1835 9.47746 33.1835 9.48196 33.1835 9.48647C33.1835 9.49097 33.1835 9.49549 33.1835 9.50002C33.1835 9.50455 33.1835 9.50909 33.1835 9.51364C33.1835 9.51818 33.1835 9.52274 33.1835 9.52731C33.1835 9.53188 33.1835 9.53645 33.1835 9.54104C33.1835 9.54563 33.1835 9.55022 33.1835 9.55483C33.1835 9.55944 33.1835 9.56405 33.1835 9.56868C33.1835 9.57331 33.1835 9.57794 33.1835 9.58259C33.1835 9.58723 33.1835 9.59189 33.1835 9.59655C33.1835 9.60122 33.1835 9.60589 33.1835 9.61057C33.1835 9.61526 33.1835 9.61995 33.1835 9.62465C33.1835 9.62935 33.1835 9.63407 33.1835 9.63879C33.1835 9.64351 33.1835 9.64824 33.1835 9.65298C33.1835 9.65772 33.1835 9.66247 33.1835 9.66723C33.1835 9.67199 33.1835 9.67675 33.1835 9.68153C33.1835 9.68631 33.1835 9.69109 33.1835 9.69589C33.1835 9.70069 33.1835 9.70549 33.1835 9.7103C33.1835 9.71512 33.1835 9.71994 33.1835 9.72477C33.1835 9.7296 33.1835 9.73445 33.1835 9.7393C33.1835 9.74415 33.1835 9.749 33.1835 9.75387C33.1835 9.75874 33.1835 9.76362 33.1835 9.7685C33.1835 9.77339 33.1835 9.77829 33.1835 9.78319C33.1835 9.78809 33.1835 9.79301 33.1835 9.79793C33.1835 9.80285 33.1835 9.80778 33.1835 9.81272C33.1835 9.81766 33.1835 9.8226 33.1835 9.82756C33.1835 9.83252 33.1835 9.83748 33.1835 9.84246C33.1835 9.84743 33.1835 9.85241 33.1835 9.8574C33.1835 9.8624 33.1835 9.86739 33.1835 9.8724C33.1835 9.87741 33.1835 9.88243 33.1835 9.88745C33.1835 9.89248 33.1835 9.89751 33.1835 9.90255C33.1835 9.9076 33.1835 9.91265 33.1835 9.91771C33.1835 9.92277 33.1835 9.92783 33.1835 9.93291C33.1835 9.93798 33.1835 9.94307 33.1835 9.94816C33.1835 9.95325 33.1835 9.95835 33.1835 9.96346C33.1835 9.96857 33.1835 9.97369 33.1835 9.97881C33.1835 9.98394 33.1835 9.98907 33.1835 9.99422C33.1835 9.99936 33.1835 10.0045 33.1835 10.0097C33.1835 10.0148 33.1835 10.02 33.1835 10.0252C33.1835 10.0303 33.1835 10.0355 33.1835 10.0407C33.1835 10.0459 33.1835 10.0511 33.1835 10.0563C33.1835 10.0615 33.1835 10.0667 33.1835 10.0719C33.1835 10.0772 33.1835 10.0824 33.1835 10.0876C33.1835 10.0929 33.1835 10.0981 33.1835 10.1034C33.1835 10.1086 33.1835 10.1139 33.1835 10.1191C33.1835 10.1244 33.1835 10.1297 33.1835 10.135C33.1835 10.1403 33.1835 10.1455 33.1835 10.1508C33.1835 10.1561 33.1835 10.1615 33.1835 10.1668C33.1835 10.1721 33.1835 10.1774 33.1835 10.1827C33.1835 10.1881 33.1835 10.1934 33.1835 10.1987C33.1835 10.2041 33.1835 10.2094 33.1835 10.2148C33.1835 10.2202 33.1835 10.2255 33.1835 10.2309C33.1835 10.2363 33.1835 10.2416 33.1835 10.247C33.1835 10.2524 33.1835 10.2578 33.1835 10.2632C33.1835 10.2686 33.1835 10.274 33.1835 10.2795C33.1835 10.2849 33.1835 10.2903 33.1835 10.2957C33.1835 10.3012 33.1835 10.3066 33.1835 10.312C33.1835 10.3175 33.1835 10.3229 33.1835 10.3284C33.1835 10.3339 33.1835 10.3393 33.1835 10.3448C33.1835 10.3503 33.1835 10.3557 33.1835 10.3612C33.1835 10.3667 33.1835 10.3722 33.1835 10.3777C33.1835 10.3832 33.1835 10.3887 33.1835 10.3942C33.1835 10.3998 33.1835 10.4053 33.1835 10.4108C33.1835 10.4163 33.1835 10.4219 33.1835 10.4274C33.1835 10.433 33.1835 10.4385 33.1835 10.4441C33.1835 10.4496 33.1835 10.4552 33.1835 10.4607C33.1835 10.4663 33.1835 10.4719 33.1835 10.4775C33.1835 10.4831 33.1835 10.4886 33.1835 10.4942C33.1835 10.4998 33.1835 10.5054 33.1835 10.511C33.1835 10.5166 33.1835 10.5223 33.1835 10.5279C33.1835 10.5335 33.1835 10.5391 33.1835 10.5448C33.1835 10.5504 33.1835 10.556 33.1835 10.5617C33.1835 10.5673 33.1835 10.573 33.1835 10.5786C33.1835 10.5843 33.1835 10.59 33.1835 10.5956C33.1835 10.6013 33.1835 10.607 33.1835 10.6127C33.1835 10.6183 33.1835 10.624 33.1835 10.6297C33.1835 10.6354 33.1835 10.6411 33.1835 10.6468C33.1835 10.6525 33.1835 10.6582 33.1835 10.664C33.1835 10.6697 33.1835 10.6754 33.1835 10.6811C33.1835 10.6869 33.1835 10.6926 33.1835 10.6983C33.1835 10.7041 33.1835 10.7098 33.1835 10.7156C33.1835 10.7213 33.1835 10.7271 33.1835 10.7329C33.1835 10.7386 33.1835 10.7444 33.1835 10.7502C33.1835 10.756 33.1835 10.7617 33.1835 10.7675C33.1835 10.7733 33.1835 10.7791 33.1835 10.7849C33.1835 10.7907 33.1835 10.7965 33.1835 10.8023C33.1835 10.8081 33.1835 10.814 33.1835 10.8198C33.1835 10.8256 33.1835 10.8314 33.1835 10.8373C33.1835 10.8431 33.1835 10.8489 33.1835 10.8548C33.1835 10.8606 33.1835 10.8665 33.1835 10.8723C33.1835 10.8782 33.1835 10.884 33.1835 10.8899C33.1835 10.8958 33.1835 10.9016 33.1835 10.9075C33.1835 10.9134 33.1835 10.9193 33.1835 10.9252C33.1835 10.931 33.1835 10.9369 33.1835 10.9428C33.1835 10.9487 33.1835 10.9546 33.1835 10.9605C33.1835 10.9664 33.1835 10.9723 33.1835 10.9783C33.1835 10.9842 33.1835 10.9901 33.1835 10.996C33.1835 11.002 33.1835 11.0079 33.1835 11.0138C33.1835 11.0198 33.1835 11.0257 33.1835 11.0316C33.1835 11.0376 33.1835 11.0435 33.1835 11.0495C33.1835 11.0555 33.1835 11.0614 33.1835 11.0674C33.1835 11.0733 33.1835 11.0793 33.1835 11.0853C33.1835 11.0913 33.1835 11.0972 33.1835 11.1032C33.1835 11.1092 33.1835 11.1152 33.1835 11.1212C33.1835 11.1272 33.1835 11.1332 33.1835 11.1392C33.1835 11.1452 33.1835 11.1512 33.1835 11.1572C33.1835 11.1632 33.1835 11.1692 33.1835 11.1752C33.1835 11.1813 33.1835 11.1873 33.1835 11.1933C33.1835 11.1993 33.1835 11.2054 33.1835 11.2114C33.1835 11.2175 33.1835 11.2235 33.1835 11.2295C33.1835 11.2356 33.1835 11.2416 33.1835 11.2477C33.1835 11.2538 33.1835 11.2598 33.1835 11.2659C33.1835 11.2719 33.1835 11.278 33.1835 11.2841C33.1835 11.2901 33.1835 11.2962 33.1835 11.3023C33.1835 11.3084 33.1835 11.3145 33.1835 11.3205C33.1835 11.3266 33.1835 11.3327 33.1835 11.3388C33.1835 11.3449 33.1835 11.351 33.1835 11.3571C33.1835 11.3632 33.1835 11.3693 33.1835 11.3754C33.1835 11.3816 33.1835 11.3877 33.1835 11.3938C33.1835 11.3999 33.1835 11.406 33.1835 11.4122C33.1835 11.4183 33.1835 11.4244 33.1835 11.4305C33.1835 11.4367 33.1835 11.4428 33.1835 11.449C33.1835 11.4551 33.1835 11.4612 33.1835 11.4674C33.1835 11.4735 33.1835 11.4797 33.1835 11.4858C33.1835 11.492 33.1835 11.4982 33.1835 11.5043C33.1835 11.5105 33.1835 11.5166 33.1835 11.5228C33.1835 11.529 33.1835 11.5352 33.1835 11.5413C33.1835 11.5475 33.1835 11.5537 33.1835 11.5599C33.1835 11.5661 33.1835 11.5722 33.1835 11.5784C33.1835 11.5846 33.1835 11.5908 33.1835 11.597C33.1835 11.6032 33.1835 11.6094 33.1835 11.6156C33.1835 11.6218 33.1835 11.628 33.1835 11.6342C33.1835 11.6404 33.1835 11.6466 33.1835 11.6528C33.1835 11.6591 33.1835 11.6653 33.1835 11.6715C33.1835 11.6777 33.1835 11.6839 33.1835 11.6902C33.1835 11.6964 33.1835 11.7026 33.1835 11.7089C33.1835 11.7151 33.1835 11.7213 33.1835 11.7276C33.1835 11.7338 33.1835 11.74 33.1835 11.7463C33.1835 11.7525 33.1835 11.7588 33.1835 11.765C33.1835 11.7713 33.1835 11.7775 33.1835 11.7838C33.1835 11.79 33.1835 11.7963 33.1835 11.8025C33.1835 11.8088 33.1835 11.8151 33.1835 11.8213C33.1835 11.8276 33.1835 11.8339 33.1835 11.8401C33.1835 11.8464 33.1835 11.8527 33.1835 11.859C33.1835 11.8652 33.1835 11.8715 33.1835 11.8778C33.1835 11.8841 33.1835 11.8903 33.1835 11.8966C33.1835 11.9029 33.1835 11.9092 33.1835 11.9155C33.1835 11.9218 33.1835 11.9281 33.1835 11.9344C33.1835 11.9407 33.1835 11.947 33.1835 11.9533C33.1835 11.9596 33.1835 11.9659 33.1835 11.9722C33.1835 11.9785 33.1835 11.9848 33.1835 11.9911C33.1835 11.9974 33.1835 12.0037 33.1835 12.01C33.1835 12.0163 33.1835 12.0226 33.1835 12.0289C33.1835 12.0353 33.1835 12.0416 33.1835 12.0479C33.1835 12.0542 33.1835 12.0605 33.1835 12.0669C33.1835 12.0732 33.1835 12.0795 33.1835 12.0858C33.1835 12.0922 33.1835 12.0985 33.1835 12.1048C33.1835 12.1111 33.1835 12.1175 33.1835 12.1238C33.1835 12.1301 33.1835 12.1365 33.1835 12.1428C33.1835 12.1492 33.1835 12.1555 33.1835 12.1618C33.1835 12.1682 33.1835 12.1745 33.1835 12.1809C33.1835 12.1872 33.1835 12.1935 33.1835 12.1999C33.1835 12.2062 33.1835 12.2126 33.1835 12.2189C33.1835 12.2253 33.1835 12.2316 33.1835 12.238C33.1835 12.2443 33.1835 12.2507 33.1835 12.2571C33.1835 12.2634 33.1835 12.2698 33.1835 12.2761C33.1835 12.2825 33.1835 12.2888 33.1835 12.2952C33.1835 12.3016 33.1835 12.3079 33.1835 12.3143C33.1835 12.3206 33.1835 12.327 33.1835 12.3334C33.1835 12.3397 33.1835 12.3461 33.1835 12.3525C33.1835 12.3588 33.1835 12.3652 33.1835 12.3716C33.1835 12.378 33.1835 12.3843 33.1835 12.3907C33.1835 12.3971 33.1835 12.4034 33.1835 12.4098C33.1835 12.4162 33.1835 12.4226 33.1835 12.4289C33.1835 12.4353 33.1835 12.4417 33.1835 12.4481C33.1835 12.4544 33.1835 12.4608 33.1835 12.4672C33.1835 12.4736 33.1835 12.48 33.1835 12.4863C33.1835 12.4927 33.1835 12.4991 33.1835 12.5055C33.1835 12.5119 33.1835 12.5182 33.1835 12.5246C33.1835 12.531 33.1835 12.5374 33.1835 12.5438C33.1835 12.5502 33.1835 12.5565 33.1835 12.5629C33.1835 12.5693 33.1835 12.5757 33.1835 12.5821C33.1835 12.5885 33.1835 12.5949 33.1835 12.6012C33.1835 12.6076 33.1835 12.614 33.1835 12.6204C33.1835 12.6268 33.1835 12.6332 33.1835 12.6396C33.1835 12.646 33.1835 12.6524 33.1835 12.6587C33.1835 12.6651 33.1835 12.6715 33.1835 12.6779C33.1835 12.6843 33.1835 12.6907 33.1835 12.6971C33.1835 12.7035 33.1835 12.7099 33.1835 12.7162C33.1835 12.7226 33.1835 12.729 33.1835 12.7354C33.1835 12.7418 33.1835 12.7482 33.1835 12.7546C33.1835 12.761 33.1835 12.7674 33.1835 12.7738C33.1835 12.7801 33.1835 12.7865 33.1835 12.7929C33.1835 12.7993 33.1835 12.8057 33.1835 12.8121C33.1835 12.8185 33.1835 12.8249 33.1835 12.8313C33.1835 12.8377 33.1835 12.844 33.1835 12.8504C33.1835 12.8568 33.1835 12.8632 33.1835 12.8696C33.1835 12.876 33.1835 12.8824 33.1835 12.8888C33.1835 12.8951 33.1835 12.9015 33.1835 12.9079C33.1835 12.9143 33.1835 12.9207 33.1835 12.9271C33.1835 12.9335 33.1835 12.9398 33.1835 12.9462C33.1835 12.9526 33.1835 12.959 33.1835 12.9654C33.1835 12.9718 33.1835 12.9782 33.1835 12.9845C33.1835 12.9909 33.1835 12.9973 33.1835 13.0037C33.1835 13.0101 33.1835 13.0164 33.1835 13.0228C33.1835 13.0292 33.1835 13.0356 33.1835 13.042C33.1835 13.0483 33.1835 13.0547 33.1835 13.0611C33.1835 13.0675 33.1835 13.0738 33.1835 13.0802C33.1835 13.0866 33.1835 13.093 33.1835 13.0993C33.1835 13.1057 33.1835 13.1121 33.1835 13.1184C33.1835 13.1248 33.1835 13.1312 33.1835 13.1376C33.1835 13.1439 33.1835 13.1503 33.1835 13.1567C33.1835 13.163 33.1835 13.1694 33.1835 13.1758C33.1835 13.1821 33.1835 13.1885 33.1835 13.1948C33.1835 13.2012 33.1835 13.2076 33.1835 13.2139C33.1835 13.2203 33.1835 13.2266 33.1835 13.233C33.1835 13.2393 33.1835 13.2457 33.1835 13.2521C33.1835 13.2584 33.1835 13.2648 33.1835 13.2711C33.1835 13.2775 33.1835 13.2838 33.1835 13.2902C33.1835 13.2965 33.1835 13.3029 33.1835 13.3092C33.1835 13.3155 33.1835 13.3219 33.1835 13.3282C33.1835 13.3346 33.1835 13.3409 33.1835 13.3472C33.1835 13.3536 33.1835 13.3599 33.1835 13.3663C33.1835 13.3726 33.1835 13.3789 33.1835 13.3853C33.1835 13.3916 33.1835 13.3979 33.1835 13.4042C33.1835 13.4106 33.1835 13.4169 33.1835 13.4232C33.1835 13.4296 33.1835 13.4359 33.1835 13.4422C33.1835 13.4485 33.1835 13.4548 33.1835 13.4611C33.1835 13.4675 33.1835 13.4738 33.1835 13.4801C33.1835 13.4864 33.1835 13.4927 33.1835 13.499C33.1835 13.5053 33.1835 13.5116 33.1835 13.5179C33.1835 13.5242 33.1835 13.5305 33.1835 13.5368C33.1835 13.5431 33.1835 13.5494 33.1835 13.5557C33.1835 13.562 33.1835 13.5683 33.1835 13.5746C33.1835 13.5809 33.1835 13.5872 33.1835 13.5935C33.1835 13.5998 33.1835 13.6061 33.1835 13.6123C33.1835 13.6186 33.1835 13.6249 33.1835 13.6312C33.1835 13.6375 33.1835 13.6437 33.1835 13.65C33.1835 13.6563 33.1835 13.6625 33.1835 13.6688C33.1835 13.6751 33.1835 13.6813 33.1835 13.6876C33.1835 13.6939 33.1835 13.7001 33.1835 13.7064C33.1835 13.7126 33.1835 13.7189 33.1835 13.7251C33.1835 13.7314 33.1835 13.7376 33.1835 13.7439C33.1835 13.7501 33.1835 13.7564 33.1835 13.7626C33.1835 13.7689 33.1835 13.7751 33.1835 13.7813C33.1835 13.7876 33.1835 13.7938 33.1835 13.8C33.1835 13.8062 33.1835 13.8125 33.1835 13.8187C33.1835 13.8249 33.1835 13.8311 33.1835 13.8374C33.1835 13.8436 33.1835 13.8498 33.1835 13.856C33.1835 13.8622 33.1835 13.8684 33.1835 13.8746C33.1835 13.8808 33.1835 13.887 33.1835 13.8932C33.1835 13.8994 33.1835 13.9056 33.1835 13.9118C33.1835 13.918 33.1835 13.9242 33.1835 13.9304C33.1835 13.9365 33.1835 13.9427 33.1835 13.9489C33.1835 13.9551 33.1835 13.9613 33.1835 13.9674C33.1835 13.9736 33.1835 13.9798 33.1835 13.9859C33.1835 13.9921 33.1835 13.9983 33.1835 14.0044C33.1835 14.0106 33.1835 14.0167 33.1835 14.0229C33.1835 14.029 33.1835 14.0352 33.1835 14.0413C33.1835 14.0475 33.1835 14.0536 33.1835 14.0597C33.1835 14.0659 33.1835 14.072 33.1835 14.0781C33.1835 14.0843 33.1835 14.0904 33.1835 14.0965C33.1835 14.1026 33.1835 14.1088 33.1835 14.1149C33.1835 14.121 33.1835 14.1271 33.1835 14.1332C33.1835 14.1393 33.1835 14.1454 33.1835 14.1515C33.1835 14.1576 33.1835 14.1637 33.1835 14.1698C33.1835 14.1759 33.1835 14.182 33.1835 14.188C33.1835 14.1941 33.1835 14.2002 33.1835 14.2063C33.1835 14.2124 33.1835 14.2184 33.1835 14.2245C33.1835 14.2306 33.1835 14.2366 33.1835 14.2427C33.1835 14.2487 33.1835 14.2548 33.1835 14.2608C33.1835 14.2669 33.1835 14.2729 33.1835 14.279C33.1835 14.285 33.1835 14.291 33.1835 14.2971C33.1835 14.3031 33.1835 14.3091 33.1835 14.3152C33.1835 14.3212 33.1835 14.3272 33.1835 14.3332C33.1835 14.3392 33.1835 14.3452 33.1835 14.3512C33.1835 14.3573 33.1835 14.3633 33.1835 14.3693C33.1835 14.3752 33.1835 14.3812 33.1835 14.3872C33.1835 14.3932 33.1835 14.3992 33.1835 14.4052C33.1835 14.4112 33.1835 14.4171 33.1835 14.4231C33.1835 14.4291 33.1835 14.435 33.1835 14.441C33.1835 14.4469 33.1835 14.4529 33.1835 14.4588C33.1835 14.4648 33.1835 14.4707 33.1835 14.4767C33.1835 14.4826 33.1835 14.4886 33.1835 14.4945C33.1835 14.5004 33.1835 14.5063 33.1835 14.5123C33.1835 14.5182 33.1835 14.5241 33.1835 14.53C33.1835 14.5359 33.1835 14.5418 33.1835 14.5477C33.1835 14.5536 33.1835 14.5595 33.1835 14.5654C33.1835 14.5713 33.1835 14.5772 33.1835 14.5831C33.1835 14.5889 33.1835 14.5948 33.1835 14.6007C33.1835 14.6065 33.1835 14.6124 33.1835 14.6183C33.1835 14.6241 33.1835 14.63 33.1835 14.6358C33.1835 14.6417 33.1835 14.6475 33.1835 14.6534C33.1835 14.6592 33.1835 14.665 33.1835 14.6708C33.1835 14.6767 33.1835 14.6825 33.1835 14.6883C33.1835 14.6941 33.1835 14.6999 33.1835 14.7057C33.1835 14.7115 33.1835 14.7173 33.1835 14.7231C33.1835 14.7289 33.1835 14.7347 33.1835 14.7405C33.1835 14.7463 33.1835 14.7521 33.1835 14.7578C33.1835 14.7636 33.1835 14.7694 33.1835 14.7751C33.1835 14.7809 33.1835 14.7866 33.1835 14.7924C33.1835 14.7981 33.1835 14.8039 33.1835 14.8096C33.1835 14.8153 33.1835 14.8211 33.1835 14.8268C33.1835 14.8325 33.1835 14.8382 33.1835 14.8439C33.1835 14.8496 33.1835 14.8554 33.1835 14.861C33.1835 14.8667 33.1835 14.8724 33.1835 14.8781C33.1835 14.8838 33.1835 14.8895 33.1835 14.8952C33.1835 14.9008 33.1835 14.9065 33.1835 14.9122C33.1835 14.9178 33.1835 14.9235 33.1835 14.9291C33.1835 14.9348 33.1835 14.9404 33.1835 14.9461C33.1835 14.9517 33.1835 14.9573 33.1835 14.963C33.1835 14.9686 33.1835 14.9742 33.1835 14.9798C33.1835 14.9854 33.1835 14.991 33.1835 14.9966C33.1835 15.0022 33.1835 15.0078 33.1835 15.0134C33.1835 15.019 33.1835 15.0246 33.1835 15.0302C33.1835 15.0357 33.1835 15.0413 33.1835 15.0469C33.1835 15.0524 33.1835 15.058 33.1835 15.0635C33.1835 15.0691 33.1835 15.0746 33.1835 15.0801C33.1835 15.0857 33.1835 15.0912 33.1835 15.0967C33.1835 15.1022 33.1835 15.1078 33.1835 15.1133C33.1835 15.1188 33.1835 15.1243 33.1835 15.1298C33.1835 15.1353 33.1835 15.1407 33.1835 15.1462C33.1835 15.1517 33.1835 15.1572 33.1835 15.1626C33.1835 15.1681 33.1835 15.1736 33.1835 15.179C33.1835 15.1845 33.1835 15.1899 33.1835 15.1953C33.1835 15.2008 33.1835 15.2062 33.1835 15.2116C33.1835 15.217 33.1835 15.2225 33.1835 15.2279C33.1835 15.2333 33.1835 15.2387 33.1835 15.2441C33.1835 15.2495 33.1835 15.2549 33.1835 15.2602C33.1835 15.2656 33.1835 15.271 33.1835 15.2763C33.1835 15.2817 33.1835 15.2871 33.1835 15.2924C33.1835 15.2978 33.1835 15.3031 33.1835 15.3084C33.1835 15.3138 33.1835 15.3191 33.1835 15.3244C33.1835 15.3297 33.1835 15.3351 33.1835 15.3404C33.1835 15.3457 33.1835 15.351 33.1835 15.3562C33.1835 15.3615 33.1835 15.3668 33.1835 15.3721C33.1835 15.3774 33.1835 15.3826 33.1835 15.3879C33.1835 15.3931 33.1835 15.3984 33.1835 15.4036C33.1835 15.4089 33.1835 15.4141 33.1835 15.4193C33.1835 15.4246 33.1835 15.4298 33.1835 15.435C33.1835 15.4402 33.1835 15.4454 33.1835 15.4506C33.1835 15.4558 33.1835 15.461 33.1835 15.4662C33.1835 15.4714 33.1835 15.4765 33.1835 15.4817C33.1835 15.4869 33.1835 15.492 33.1835 15.4972C33.1835 15.5023 33.1835 15.5075 33.1835 15.5126C33.1835 15.5177 33.1835 15.5228 33.1835 15.528C33.1835 15.5331 33.1835 15.5382 33.1835 15.5433C33.1835 15.5484 33.1835 15.5535 33.1835 15.5585C33.1835 15.5636 33.1835 15.5687 33.1835 15.5738C33.1835 15.5788 33.1835 15.5839 33.1835 15.5889C33.1835 15.594 33.1835 15.599 33.1835 15.6041C33.1835 15.6091 33.1835 15.6141 33.1835 15.6191C33.1835 15.6241 33.1835 15.6291 33.1835 15.6341C33.1835 15.6391 33.1835 15.6441 33.1835 15.6491C33.1835 15.6541 33.1835 15.6591 33.1835 15.664H35.0168ZM34.5101 7.48513L29.3859 4.92303L28.566 6.56281L33.6902 9.12491L34.5101 7.48513ZM26.4343 6.56281C27.1053 6.22733 27.895 6.22733 28.566 6.56281L29.3859 4.92303C28.1988 4.32948 26.8015 4.32948 25.6144 4.92303L26.4343 6.56281ZM29.9751 12.0635H27.5001V13.8968H29.9751V12.0635ZM27.5001 12.0635H25.0251V13.8968H27.5001V12.0635ZM28.4168 15.455V12.9801H26.5835V15.455H28.4168ZM28.4168 12.9801V10.505H26.5835V12.9801H28.4168Z" fill="#0793EA"/>
</g>
<path d="M0 17L27 27L54 17V35C54 37.7614 51.7614 40 49 40H5C2.23858 40 0 37.7614 0 35V17Z" fill="#0793EA"/>
<path opacity="0.9" d="M37.96 30.56H39.248L40.696 34.648L42.144 30.56H43.432L41.44 36H39.952L37.96 30.56ZM43.9186 30.56H45.1666V36H43.9186V30.56ZM46.2233 30.56H48.4153C48.7033 30.56 48.97 30.5947 49.2153 30.664C49.4606 30.728 49.6713 30.832 49.8473 30.976C50.0233 31.12 50.162 31.304 50.2633 31.528C50.3646 31.7467 50.4153 32.008 50.4153 32.312C50.4153 32.616 50.3646 32.88 50.2633 33.104C50.162 33.3227 50.0233 33.504 49.8473 33.648C49.6713 33.792 49.4606 33.8987 49.2153 33.968C48.97 34.032 48.7033 34.064 48.4153 34.064H47.4713V36H46.2233V30.56ZM48.2473 32.984C48.3753 32.984 48.4926 32.976 48.5993 32.96C48.706 32.9387 48.7966 32.904 48.8713 32.856C48.9513 32.8027 49.0126 32.7333 49.0553 32.648C49.1033 32.5573 49.1273 32.4453 49.1273 32.312C49.1273 32.1787 49.1033 32.0693 49.0553 31.984C49.0126 31.8933 48.9513 31.824 48.8713 31.776C48.7966 31.7227 48.706 31.688 48.5993 31.672C48.4926 31.6507 48.3753 31.64 48.2473 31.64H47.4713V32.984H48.2473Z" fill="white"/>
</svg>
