<svg width="24" height="24" viewBox="0 0 24 24" fill="none" xmlns="http://www.w3.org/2000/svg">
<path fill-rule="evenodd" clip-rule="evenodd" d="M19 11.536C19 8.4835 16.0842 6 12.5 6C8.91618 6 6 8.4835 6 11.536C6 14.2727 8.31247 16.5645 11.4361 16.9978C11.6477 17.0458 11.9359 17.1443 12.0087 17.3342C12.0743 17.5067 12.0516 17.7769 12.0298 17.9511C12.0298 17.9511 11.9535 18.4324 11.937 18.535C11.9086 18.7074 11.8063 19.2096 12.5 18.9028C12.7047 18.8123 13.1145 18.5738 13.6256 18.2402C14.8466 17.4432 16.6457 16.1034 17.607 14.9422C18.5487 13.8579 19 12.7577 19 11.536Z" fill="white"/>
<path fill-rule="evenodd" clip-rule="evenodd" d="M16.8974 13H15.3903H15.3883C15.3316 13 15.2857 12.946 15.2857 12.8793V12.8774V10.1235V10.1207C15.2857 10.054 15.3316 10 15.3883 10H15.3903H16.8974C16.9538 10 17 10.0543 17 10.1207V10.569C17 10.6356 16.9541 10.6896 16.8974 10.6896H15.8718V11.1551H16.8974C16.9538 11.1551 17 11.2095 17 11.2758V11.7241C17 11.7908 16.9541 11.8449 16.8974 11.8449H15.8718V12.3104H16.8974C16.9538 12.3104 17 12.3647 17 12.431V12.8793C17 12.946 16.9541 13 16.8974 13ZM10.6117 13C10.6684 13 10.7143 12.946 10.7143 12.8793V12.431C10.7143 12.3647 10.6681 12.3104 10.6117 12.3104H9.58606V10.1207C9.58606 10.0543 9.53994 10 9.4835 10H9.10256C9.04592 10 9 10.054 9 10.1207V12.8772V12.8793C9 12.946 9.04592 13 9.10256 13H9.10458H10.6117ZM11.7571 10H11.3857C11.3305 10 11.2857 10.054 11.2857 10.1207V12.8794C11.2857 12.946 11.3305 13 11.3857 13H11.7571C11.8124 13 11.8571 12.946 11.8571 12.8794V10.1207C11.8571 10.054 11.8124 10 11.7571 10ZM13.5714 12.0796L14.1322 12.948C14.1398 12.9603 14.1491 12.9704 14.1594 12.9784C14.1598 12.9787 14.1602 12.979 14.1607 12.9794C14.1628 12.981 14.165 12.9825 14.1672 12.9839C14.1683 12.9846 14.1693 12.9852 14.1703 12.9859C14.172 12.9869 14.1737 12.9878 14.1754 12.9887C14.1771 12.9896 14.1788 12.9905 14.1806 12.9913C14.1817 12.9918 14.1828 12.9922 14.1839 12.9927C14.1863 12.9937 14.1887 12.9945 14.1911 12.9953C14.1917 12.9955 14.1922 12.9956 14.1927 12.9958C14.2015 12.9985 14.2107 13 14.2202 13H14.609C14.6671 13 14.7143 12.946 14.7143 12.8793V10.1207C14.7143 10.054 14.6671 10 14.609 10H14.218C14.1599 10 14.1128 10.054 14.1128 10.1207V11.7591L13.012 10.0546C13.0094 10.0502 13.0065 10.0462 13.0035 10.0422C13.0033 10.0419 13.0031 10.0416 13.0028 10.0413C13.0008 10.0387 12.9987 10.0362 12.9965 10.0338C12.9958 10.0331 12.9952 10.0324 12.9945 10.0317C12.9926 10.0298 12.9908 10.028 12.9888 10.0262C12.9879 10.0254 12.9869 10.0245 12.9859 10.0238C12.9842 10.0222 12.9823 10.0207 12.9804 10.0194C12.9793 10.0185 12.9782 10.0178 12.9772 10.0171C12.9752 10.0158 12.9733 10.0146 12.9713 10.0134C12.9703 10.0128 12.9691 10.0121 12.968 10.0116C12.966 10.0105 12.964 10.0095 12.9618 10.0085C12.9607 10.0081 12.9596 10.0076 12.9584 10.0071C12.9563 10.0063 12.9542 10.0055 12.952 10.0047C12.9508 10.0043 12.9495 10.004 12.9483 10.0037C12.9462 10.0031 12.9442 10.0025 12.942 10.0021C12.9406 10.0018 12.9391 10.0015 12.9376 10.0013C12.9357 10.001 12.9338 10.0007 12.9319 10.0005C12.93 10.0003 12.9281 10.0002 12.9263 10.0002C12.9251 10.0001 12.9239 10 12.9227 10H12.5338C12.4757 10 12.4286 10.054 12.4286 10.1207V12.8793C12.4286 12.946 12.4757 13 12.5338 13H12.9248C12.983 13 13.0301 12.946 13.0301 12.8793V11.2414L13.5714 12.0796Z" fill="black"/>
</svg>
