<svg width="24" height="24" viewBox="0 0 24 24" fill="none" xmlns="http://www.w3.org/2000/svg">
<path d="M12.4643 7.00125L11.7059 7C10.7093 7.00604 7.4484 7.04469 6.52709 7.29204C5.9247 7.4534 5.45025 7.92877 5.28923 8.5324C5.06256 9.38004 5.0115 10.9411 5 11.6014V12.2171C5.0115 12.8774 5.06256 14.4385 5.28923 15.2861C5.45025 15.8897 5.9247 16.3453 6.52709 16.5067C7.3612 16.7306 10.113 16.7835 11.366 16.796H12.6287C13.8817 16.7835 16.6335 16.7306 17.4676 16.5067C18.07 16.3453 18.5444 15.8897 18.7054 15.2861C18.8693 14.6734 18.9414 13.688 18.9731 12.9394L18.9975 11.8166C18.9938 11.3785 18.9629 9.49521 18.7054 8.5324C18.5444 7.92877 18.07 7.45338 17.4676 7.29204C16.5948 7.05771 13.6221 7.01069 12.4643 7.00125ZM10.5972 9.79915L14.0975 11.8994L10.5972 13.9996V9.79915Z" fill="white"/>
</svg>
