<svg width="24" height="24" viewBox="0 0 24 24" fill="none" xmlns="http://www.w3.org/2000/svg">
<path d="M5.5 10.2416C5.5 14.6161 9.44132 18.2335 11.1859 19.6204C11.4355 19.8189 11.5619 19.9193 11.7481 19.9703C11.8932 20.0099 12.1066 20.0099 12.2517 19.9703C12.4383 19.9192 12.5637 19.8198 12.8144 19.6206C14.5589 18.2336 18.5 14.6165 18.5 10.242C18.5 8.58661 17.8152 6.99877 16.5962 5.8282C15.3772 4.65762 13.724 4 12.0001 4C10.2762 4 8.62281 4.65772 7.40382 5.82829C6.18482 6.99887 5.5 8.58621 5.5 10.2416Z" fill="#DDDDDD"/>
<path d="M10.1406 9.41258C10.1406 10.4085 10.9721 11.2158 11.9978 11.2158C13.0235 11.2158 13.8549 10.4085 13.8549 9.41258C13.8549 8.4167 13.0235 7.60938 11.9978 7.60938C10.9721 7.60938 10.1406 8.4167 10.1406 9.41258Z" fill="white"/>
</svg>
