<svg width="48" height="48" viewBox="0 0 48 48" fill="none" xmlns="http://www.w3.org/2000/svg">
<path d="M37.053 0H10.947C4.90112 0 0 4.90112 0 10.947V37.053C0 43.0989 4.90112 48 10.947 48H37.053C43.0989 48 48 43.0989 48 37.053V10.947C48 4.90112 43.0989 0 37.053 0Z" fill="#0793EA"/>
<path d="M36 17.4379V29.2495C36 30.1816 35.4865 31.0352 34.6499 31.5063V33.5135C34.6499 34.051 34.1902 34.498 33.6374 34.498H32.9623C32.4095 34.498 31.9498 34.051 31.9498 33.5135V31.8727H22.5014V33.5135C22.5014 34.051 22.0417 34.498 21.4888 34.498H20.8138C20.2609 34.498 19.8012 34.051 19.8012 33.5135V31.5063C18.9771 31.0332 18.4512 30.1816 18.4512 29.2495V17.4379C18.4512 13.5 22.5014 13.5 27.2245 13.5C31.9477 13.5 35.9979 13.5 35.9979 17.4379M23.8494 27.9369C23.8494 27.2141 23.2427 26.6242 22.4993 26.6242C21.7559 26.6242 21.1492 27.2141 21.1492 27.9369C21.1492 28.6596 21.7559 29.2495 22.4993 29.2495C23.2427 29.2495 23.8494 28.6596 23.8494 27.9369ZM33.2978 27.9369C33.2978 27.2141 32.6911 26.6242 31.9477 26.6242C31.2044 26.6242 30.5977 27.2141 30.5977 27.9369C30.5977 28.6596 31.2044 29.2495 31.9477 29.2495C32.6911 29.2495 33.2978 28.6596 33.2978 27.9369ZM33.2978 17.4379H21.1492V22.6884H33.2978V17.4379ZM15.749 20.7194C15.7076 18.9075 14.1691 17.4379 12.3075 17.5043C10.4439 17.5406 8.96342 19.0384 9.00069 20.8503C9.03796 22.3824 10.1561 23.689 11.7008 24.001V34.5H13.0509V24.001C14.6432 23.6869 15.751 22.3079 15.751 20.7194" fill="#FDFDFD"/>
</svg>
