<svg width="66" height="34" viewBox="0 0 66 34" fill="none" xmlns="http://www.w3.org/2000/svg">
<path fill-rule="evenodd" clip-rule="evenodd" d="M21.5821 4.0946C22.2854 3.96158 22.749 3.96245 22.9153 4.13808C23.0135 4.24849 23.0427 4.43107 22.9135 4.65885C22.8366 4.78144 22.7596 4.89012 22.6198 5.05531C16.6644 11.9541 12.1305 22.1289 10.8407 25.0684C10.7451 25.2701 10.6469 25.4709 10.5682 25.6022C10.4514 25.8091 10.2904 25.9821 10.0047 25.9986C9.84545 26.0082 9.63048 25.9708 9.30139 25.7743C5.34964 23.38 3 20.3944 3 17.1576C3 11.3125 10.6469 6.28814 21.5821 4.0946ZM26.9613 8.52018C27.523 7.26363 28.4898 4.57164 30.7102 3.50169C31.3842 3.17813 32.2122 3.02321 32.957 3.00266C33.1233 2.99667 33.2427 3.00266 33.2905 3.00266C39.5074 3.00266 45.2917 3.83466 50.1393 5.26582C50.1747 5.27609 50.2879 5.31889 50.3224 5.33173C50.7691 5.47553 51 5.67412 51 5.92149C51 6.13548 50.8806 6.29725 50.7214 6.45047C50.6532 6.51552 50.5506 6.60112 50.4144 6.71154C49.2972 7.61715 45.9295 9.9736 39.587 12.3224C37.3596 13.1475 34.5785 14.1704 31.6655 14.767C29.9512 15.1171 23.6131 16.0501 26.9613 8.52018ZM56.4324 8.39735C56.5519 8.19131 56.712 8.02005 57.0004 8.00179C57.1588 7.99049 57.3755 8.02874 57.7011 8.22695C61.6565 10.6194 64 13.6047 64 16.8404C64 22.6859 56.3528 27.7072 45.4217 29.9049C44.7192 30.0397 44.253 30.0362 44.0929 29.8623C43.9841 29.7537 43.9549 29.5667 44.0929 29.3372C44.1619 29.219 44.2406 29.1103 44.3848 28.9391C50.3396 22.0408 54.8736 11.8704 56.1626 8.93286C56.2608 8.72944 56.3572 8.52949 56.4324 8.39735ZM40.0388 25.4758C39.4779 26.7374 38.5109 29.4284 36.2894 30.4991C35.6187 30.8192 34.7871 30.9767 34.0422 30.9981C33.875 31.0024 33.7564 30.9981 33.706 30.9981C27.4881 30.9981 21.7038 30.1636 16.8617 28.7368C16.8201 28.7257 16.7087 28.682 16.6742 28.6692C16.2283 28.5263 16 28.3243 16 28.0803C16 27.8612 16.115 27.7012 16.276 27.5497C16.3424 27.4829 16.4468 27.3999 16.5804 27.2869C17.7013 26.3848 21.0677 24.0225 27.4129 21.6748C29.6389 20.8531 32.4205 19.8277 35.3374 19.2329C37.0458 18.8845 43.3875 17.9465 40.0388 25.4758ZM33 34C51.2264 34 66 26.3898 66 16.9978C66 7.61021 51.2264 0 33 0C14.7745 0 0 7.61021 0 16.9978C0 26.3898 14.7745 34 33 34Z" fill="#002C5F"/>
</svg>
