<svg width="53" height="27" viewBox="0 0 53 27" fill="none" xmlns="http://www.w3.org/2000/svg">
<path fill-rule="evenodd" clip-rule="evenodd" d="M16.8657 3.07739C17.4284 2.96856 17.7992 2.96929 17.9323 3.11298C18.0108 3.20332 18.0342 3.35269 17.9308 3.53906C17.8693 3.63936 17.8077 3.72831 17.6959 3.86346C12.9315 9.50794 9.30441 17.8327 8.27255 20.2377C8.19612 20.4028 8.11755 20.5671 8.05457 20.6745C7.96115 20.8438 7.83235 20.9854 7.60376 20.9989C7.47637 21.0067 7.30438 20.9761 7.04111 20.8154C3.87971 18.8563 2 16.4136 2 13.7653C2 8.98292 8.11756 4.8721 16.8657 3.07739ZM21.769 6.60016C22.2184 5.55303 22.9919 3.30972 24.7681 2.41809C25.3074 2.14846 25.9698 2.01932 26.5656 2.0022C26.6987 1.9972 26.7942 2.0022 26.8324 2.0022C31.8059 2.0022 36.4334 2.69555 40.3114 3.88818C40.3397 3.89674 40.4303 3.93242 40.4579 3.94312C40.8153 4.06295 41 4.22843 41 4.43457C41 4.6129 40.9045 4.74769 40.7771 4.87537C40.7226 4.92958 40.6405 5.00094 40.5315 5.09296C39.6377 5.84763 36.9436 7.81132 31.8696 9.76862C30.0877 10.4562 27.8628 11.3087 25.5324 11.8058C24.1609 12.0976 19.0905 12.8751 21.769 6.60016ZM44.946 6.32507C45.0415 6.1565 45.1696 6.0164 45.4003 6.00146C45.527 5.99222 45.7004 6.0235 45.9608 6.18567C49.1252 8.14312 51 10.5857 51 13.2331C51 18.0158 44.8822 22.1241 36.1373 23.9222C35.5754 24.0324 35.2024 24.0296 35.0743 23.8873C34.9873 23.7984 34.9639 23.6455 35.0743 23.4578C35.1295 23.361 35.1925 23.2721 35.3079 23.132C40.0717 17.4879 43.6989 9.16666 44.7301 6.76324C44.8086 6.5968 44.8858 6.43319 44.946 6.32507ZM31.231 20.3965C30.7823 21.4479 30.0087 23.6903 28.2315 24.5826C27.695 24.8493 27.0297 24.9806 26.4337 24.9984C26.3 25.002 26.2051 24.9984 26.1648 24.9984C21.1905 24.9984 16.5631 24.303 12.6894 23.114C12.6561 23.1047 12.5669 23.0684 12.5393 23.0577C12.1826 22.9386 12 22.7702 12 22.567C12 22.3844 12.092 22.251 12.2208 22.1248C12.2739 22.0691 12.3574 21.9999 12.4643 21.9058C13.3611 21.154 16.0542 19.1854 21.1303 17.2289C22.9111 16.5442 25.1364 15.6898 27.4699 15.1941C28.8366 14.9038 33.91 14.1221 31.231 20.3965ZM26.5 27C41.1364 27 53 20.9566 53 13.4983C53 6.04342 41.1364 0 26.5 0C11.8643 0 0 6.04342 0 13.4983C0 20.9566 11.8643 27 26.5 27Z" fill="white"/>
</svg>
