<svg width="80" height="80" viewBox="0 0 80 80" fill="none" xmlns="http://www.w3.org/2000/svg">
<path d="M58 76.6356C66.5604 76.6356 73.5 69.696 73.5 61.1356C73.5 52.5752 66.5604 45.6356 58 45.6356C49.4396 45.6356 42.5 52.5752 42.5 61.1356C42.5 69.696 49.4396 76.6356 58 76.6356Z" stroke="#0793EA" stroke-width="3"/>
<path d="M51.332 61.3927L55.7734 65.8378L64.6564 56.9477" stroke="#0793EA" stroke-width="3" stroke-linecap="square"/>
<path d="M25 18.5H45" stroke="#666666" stroke-width="3" stroke-linecap="square"/>
<path d="M25 26.5H45" stroke="#666666" stroke-width="3" stroke-linecap="square"/>
<path d="M25 34.5H45" stroke="#666666" stroke-width="3" stroke-linecap="square"/>
<path d="M39 72.8275L7 73V9.75C7 6.57436 9.46238 4 12.4999 4H56.4989C59.5364 4 61.9988 6.57436 61.9988 9.75L62 39" stroke="#666666" stroke-width="3"/>
</svg>
