<svg width="56" height="56" viewBox="0 0 56 56" fill="none" xmlns="http://www.w3.org/2000/svg">
<path d="M6.33594 18C6.33594 16.8954 7.23137 16 8.33594 16H48.3359C49.4405 16 50.3359 16.8954 50.3359 18V22C50.3359 23.1046 49.4057 23.9629 48.3885 24.3935C46.5946 25.1528 45.3359 26.9294 45.3359 29C45.3359 31.0706 46.5946 32.8472 48.3885 33.6065C49.4057 34.0371 50.3359 34.8954 50.3359 36V40C50.3359 41.1046 49.4405 42 48.3359 42H8.33594C7.23137 42 6.33594 41.1046 6.33594 40V36C6.33594 34.8954 7.26622 34.0371 8.28342 33.6065C10.0773 32.8472 11.3359 31.0706 11.3359 29C11.3359 26.9294 10.0773 25.1528 8.28342 24.3935C7.26622 23.9629 6.33594 23.1046 6.33594 22V18Z" stroke="black" stroke-width="2.8" stroke-linecap="round" stroke-linejoin="round"/>
<path d="M37.3359 16L37.3359 19M37.3359 23V27M37.3359 31V35M37.3359 39V42" stroke="black" stroke-width="2.8" stroke-linecap="round" stroke-linejoin="round"/>
</svg>
