<svg width="34" height="24" viewBox="0 0 34 24" fill="none" xmlns="http://www.w3.org/2000/svg">
<g clip-path="url(#clip0_3236_3391)">
<path d="M11.982 0.101562C5.76558 0.101562 0.726562 4.76189 0.726562 10.5121C0.726562 14.7583 2.50492 16.7855 4.94132 18.6337L4.95312 18.6386V23.6216C4.95312 23.8576 5.22164 23.9914 5.40951 23.8517L9.67738 20.6816L9.76984 20.7209C10.4849 20.8527 11.2246 20.9225 11.982 20.9225C18.1984 20.9225 23.2364 16.2612 23.2364 10.5121C23.2364 4.76287 18.1974 0.101562 11.982 0.101562ZM8.20886 13.1491C9.31148 13.1491 10.2557 12.4891 10.54 11.4691H12.1708C11.7725 13.4324 10.2439 14.7189 8.20886 14.7189C5.84328 14.7189 3.96755 12.9543 3.96755 10.4993C3.96755 8.04419 5.8423 6.27959 8.20886 6.27959C10.2646 6.27959 11.803 7.59173 12.1826 9.59042H10.5557C10.3089 8.50451 9.33214 7.82779 8.20886 7.82779C6.61837 7.82779 5.56001 8.96189 5.56001 10.4993C5.56001 12.0366 6.76296 13.1491 8.20886 13.1491ZM18.9607 14.5576H17.4656V11.1839C17.4656 10.4078 17.0131 9.98976 16.3177 9.98976C15.5407 9.98976 15.043 10.4648 15.043 11.4268V14.5566H13.5469V6.30615H15.043V9.40943C15.401 8.8655 15.9813 8.59795 16.7692 8.59795C17.4075 8.59795 17.9289 8.80648 18.3341 9.23533C18.7521 9.66418 18.9607 10.2445 18.9607 10.998V14.5566V14.5576Z" fill="#020303"/>
</g>
<g clip-path="url(#clip1_3236_3391)">
<rect x="29" y="7" width="2" height="8" rx="0.2" fill="#020303"/>
<rect x="26" y="12" width="2" height="8" rx="0.2" transform="rotate(-90 26 12)" fill="#020303"/>
</g>
<defs>
<clipPath id="clip0_3236_3391">
<rect width="24" height="24" fill="white"/>
</clipPath>
<clipPath id="clip1_3236_3391">
<rect width="8" height="8" fill="white" transform="translate(26 7)"/>
</clipPath>
</defs>
</svg>
